<svg xmlns="http://www.w3.org/2000/svg" xmlns:xlink="http://www.w3.org/1999/xlink" width="657" height="558.039" viewBox="0 0 657 558.039">
  <defs>
    <linearGradient id="linear-gradient" y1="0.5" x2="1" y2="0.5" gradientUnits="objectBoundingBox">
      <stop offset="0" stop-color="#606bf1"/>
      <stop offset="1" stop-color="#433aff"/>
    </linearGradient>
    <radialGradient id="radial-gradient" cx="-0.554" cy="0.234" r="0.709" gradientTransform="translate(0.278) scale(0.443 1)" gradientUnits="objectBoundingBox">
      <stop offset="0" stop-color="#ffc8af"/>
      <stop offset="1" stop-color="#ffbb9c"/>
    </radialGradient>
    <radialGradient id="radial-gradient-2" cx="-3.108" cy="0.13" r="1.216" gradientTransform="translate(0.069) scale(0.861 1)" xlink:href="#radial-gradient"/>
    <linearGradient id="linear-gradient-2" x1="519.067" y1="0.303" x2="520.075" y2="0.303" gradientUnits="objectBoundingBox">
      <stop offset="0" stop-color="#febbba"/>
      <stop offset="1" stop-color="#ff928e"/>
    </linearGradient>
    <radialGradient id="radial-gradient-3" cx="0.494" cy="0.491" r="0.467" gradientTransform="matrix(1.161, 0.009, -0.011, 1, -16.155, -0.948)" xlink:href="#radial-gradient"/>
    <radialGradient id="radial-gradient-4" cx="0.496" cy="0.491" r="0.771" gradientTransform="matrix(0.516, 0.009, -0.005, 1, 38.904, -0.757)" xlink:href="#radial-gradient"/>
    <radialGradient id="radial-gradient-5" cx="0.5" cy="0.5" r="0.484" gradientTransform="translate(-0.034) scale(1.069 1)" xlink:href="#radial-gradient"/>
    <radialGradient id="radial-gradient-6" cx="0.566" cy="0.595" r="0.54" gradientTransform="matrix(0.778, -0.656, 0.635, 0.709, -47.814, -40.669)" xlink:href="#radial-gradient"/>
    <radialGradient id="radial-gradient-7" cx="1.056" cy="0.295" r="0.648" gradientTransform="matrix(0.507, -0.661, 0.446, 0.751, -227.148, -117.814)" xlink:href="#radial-gradient"/>
    <radialGradient id="radial-gradient-8" cx="0.498" cy="0.501" r="0.528" gradientTransform="translate(0.05) scale(0.9 1)" xlink:href="#radial-gradient"/>
    <radialGradient id="radial-gradient-9" cx="0.5" cy="0.5" r="0.465" gradientTransform="translate(-0.086) scale(1.173 1)" xlink:href="#radial-gradient"/>
    <radialGradient id="radial-gradient-10" cx="-2.091" cy="0.709" r="0.565" gradientTransform="translate(-0.062) scale(1.125 1)" xlink:href="#radial-gradient"/>
    <linearGradient id="linear-gradient-3" x1="0.639" y1="-14.13" x2="0.129" y2="39.27" gradientUnits="objectBoundingBox">
      <stop offset="0" stop-color="#53d8ff"/>
      <stop offset="1" stop-color="#3840f7"/>
    </linearGradient>
    <linearGradient id="linear-gradient-4" x1="0.598" y1="-8.012" x2="0.176" y2="27.99" xlink:href="#linear-gradient-3"/>
    <linearGradient id="linear-gradient-5" x1="0.584" y1="-6.928" x2="0.169" y2="29.426" xlink:href="#linear-gradient-3"/>
    <linearGradient id="linear-gradient-6" x1="0.575" y1="-5.727" x2="0.137" y2="30.649" xlink:href="#linear-gradient-3"/>
    <linearGradient id="linear-gradient-7" x1="17.38" y1="-3.753" x2="9.009" y2="-1.648" gradientUnits="objectBoundingBox">
      <stop offset="0" stop-color="#e1473d"/>
      <stop offset="1" stop-color="#e9605a"/>
    </linearGradient>
    <linearGradient id="linear-gradient-8" x1="18.06" y1="-3.91" x2="9.689" y2="-1.805" xlink:href="#linear-gradient-7"/>
    <radialGradient id="radial-gradient-11" cx="0.499" cy="0.5" r="0.412" gradientTransform="translate(-0.34) scale(1.681 1)" xlink:href="#radial-gradient"/>
    <radialGradient id="radial-gradient-12" cx="0.5" cy="0.499" r="0.453" gradientTransform="translate(-0.125) scale(1.25 1)" xlink:href="#radial-gradient"/>
    <radialGradient id="radial-gradient-13" cx="0.467" cy="0.455" r="0.454" gradientTransform="matrix(0.764, -0.797, 1.007, 0.604, -128.404, -17.82)" xlink:href="#radial-gradient"/>
    <radialGradient id="radial-gradient-14" cx="0.644" cy="0.47" r="0.433" gradientTransform="matrix(0.989, -0.797, 1.304, 0.604, -465.63, -116.921)" xlink:href="#radial-gradient"/>
    <radialGradient id="radial-gradient-15" cx="0.5" cy="0.501" r="1.631" gradientTransform="translate(0.389) scale(0.222 1)" xlink:href="#radial-gradient"/>
    <radialGradient id="radial-gradient-16" cx="0.5" cy="0.5" r="0.464" gradientTransform="matrix(-1.178, 0, 0, 1, -2043.267, 0)" xlink:href="#radial-gradient"/>
    <radialGradient id="radial-gradient-17" cx="0.499" cy="0.5" r="0.467" gradientTransform="matrix(-1.16, 0, 0, 1, -2280.731, 0)" xlink:href="#radial-gradient"/>
    <linearGradient id="linear-gradient-9" x1="-4569.939" y1="2.369" x2="-4568.559" y2="1.878" gradientUnits="objectBoundingBox">
      <stop offset="0" stop-color="#4f52ff"/>
      <stop offset="1" stop-color="#4042e2"/>
    </linearGradient>
    <radialGradient id="radial-gradient-18" cx="0.501" cy="0.498" r="0.486" gradientTransform="matrix(-1.06, 0, 0, 1, -539.818, 0)" xlink:href="#radial-gradient"/>
    <radialGradient id="radial-gradient-19" cx="0.5" cy="0.5" r="0.528" gradientTransform="matrix(-0.901, 0, 0, 1, -263.563, 0)" xlink:href="#radial-gradient"/>
    <radialGradient id="radial-gradient-20" cx="0.5" cy="0.5" r="0.415" gradientTransform="matrix(-1.636, 0, 0, 1, -1370.347, 0)" xlink:href="#radial-gradient"/>
    <radialGradient id="radial-gradient-21" cx="0.5" cy="0.5" r="0.444" gradientTransform="matrix(-1.321, 0, 0, 1, -985.666, 0)" xlink:href="#radial-gradient"/>
    <radialGradient id="radial-gradient-22" cx="0.499" cy="0.5" r="0.43" gradientTransform="matrix(-1.44, 0, 0, 1, -3211.855, 0)" xlink:href="#radial-gradient"/>
  </defs>
  <g id="Group_740" data-name="Group 740" transform="translate(-238 -3388)">
    <g id="Ellipse_13" data-name="Ellipse 13" transform="translate(517 3585)" fill="none" stroke="#035afb" stroke-width="2" stroke-dasharray="20 21" opacity="0.44">
      <circle cx="163" cy="163" r="163" stroke="none"/>
      <circle cx="163" cy="163" r="162" fill="none"/>
    </g>
    <g id="Ellipse_14" data-name="Ellipse 14" transform="translate(569 3531)" fill="none" stroke="#035afb" stroke-width="2" stroke-dasharray="20 21" opacity="0.44">
      <circle cx="163" cy="163" r="163" stroke="none"/>
      <circle cx="163" cy="163" r="162" fill="none"/>
    </g>
    <g id="Group_652" data-name="Group 652" transform="translate(-1445.565 3080)">
      <path id="Path_589" data-name="Path 589" d="M775.813,444.47v10.41H759.53V444.869Z" transform="translate(1041.249 384.572)" fill="#ffc8af"/>
      <path id="Path_590" data-name="Path 590" d="M760.473,467.7a21.2,21.2,0,0,0,7.033.246,7.469,7.469,0,0,1,2.6,0,3.048,3.048,0,0,1,2.837-1.958,4.689,4.689,0,0,1,3.271,1.465,4.781,4.781,0,0,0,1.418,1.172,3.4,3.4,0,0,0,1.371.164l16.271-.352a3.739,3.739,0,0,0,3.013-1,3.516,3.516,0,0,0,.492-2.251,6.892,6.892,0,0,0-1.078-4.22c-1.172-1.465-3.282-1.477-5.076-2s-3.435-1.36-5.334-1.946A15.509,15.509,0,0,1,777.7,448.3a3.833,3.833,0,0,0-1.1-1.782,3.283,3.283,0,0,0-2.954,0,27.751,27.751,0,0,0-3.411,1.524c-.762.41-1.606,1.043-1.512,1.9.129,1.114,1.805,1.922,1.3,2.919-.281.574-1.078.61-1.723.539a30.653,30.653,0,0,1-9.378-2.555,24.166,24.166,0,0,0-.375,4.314l.434,9.226a6.317,6.317,0,0,0,1.489,3.318Z" transform="translate(1041.08 384.865)" fill="#1a1d3e"/>
      <path id="Path_591" data-name="Path 591" d="M824.087,442.16l2.286,10.972-15.063,2.6-3.47-12.567Z" transform="translate(1049.57 384.175)" fill="#ffc8af"/>
      <path id="Path_592" data-name="Path 592" d="M763.506,388.279c-9.788.5-22.859,1.172-39.927,1.852C675.81,391.96,685.54,345.7,685.54,345.7l45.648-.6s67.862-1.008,82.163,8.124,35.168,105.5,35.168,105.5l-22.8,6.307s-18.428-39.6-29.177-60.688c-4.419-8.675-7.608-15.04-7.889-15.732C788.112,387.06,781.172,387.376,763.506,388.279Z" transform="translate(1028.363 367.451)" fill="#0a2033"/>
      <path id="Path_593" data-name="Path 593" d="M732.641,345.09h-1.454l-45.648.6s-5.451,25.942,11.875,38.2c17.244-4.173,27.513-21.663,36.563-37.371Z" transform="translate(1028.364 367.454)" fill="#0a2033"/>
      <path id="Path_594" data-name="Path 594" d="M785.011,398.11l-3.775,57.147-4.115.094v-2.345H760.839v2.778l-4.49.105-4.419-73.852c17.584-.9,24.617-1.172,25.192.34C777.4,383.07,780.592,389.435,785.011,398.11Z" transform="translate(1039.94 373.692)" fill="#243c55"/>
      <path id="Path_595" data-name="Path 595" d="M809.029,340.112H782.068s-40.619-6.553-48.531-11.418c-2.931-1.805-7.971-7.338-13.176-13.575l18.346-15.239c3.212,5.088,6.143,9.237,7.3,9.695,3.2,1.172,33.468,18.088,36.973,18.088S803.25,327.334,809.029,340.112Z" transform="translate(1034.502 359.666)" fill="#efa78b"/>
      <path id="Path_596" data-name="Path 596" d="M742.648,303.114,723.06,318.787c-8.874-10.644-18.17-23.445-18.17-23.445l27.782-16.752S739.811,295.588,742.648,303.114Z" transform="translate(1031.837 355.999)" fill="url(#linear-gradient)"/>
      <path id="Path_597" data-name="Path 597" d="M729.53,267.854,709.449,260s-23.949,2.79-25.6,60.488c-.317,11.148-.211,72.68,3.188,74.3,13.528,6.295,48.379-35,48.379-35,.692-1.278-.293-14.595,0-15.908a13.194,13.194,0,0,1-2.087-.949c-3.517-2.1-10.2-10.914-16.74-20.444l20.667-16.107c.821,1.3,1.641,2.556,2.427,3.786C740.233,279.319,729.53,267.854,729.53,267.854Z" transform="translate(1028.192 352.797)" fill="#033cfb"/>
      <path id="Path_598" data-name="Path 598" d="M789.516,333.787s-42.447-17.349-45.331-17.971c-.914-.2-4.033-4.513-7.878-10.328-.809-1.254-3.06-4.689-3.88-5.979L711.76,315.617c6.541,9.53,13.188,18.346,16.74,20.444a13.2,13.2,0,0,0,2.087.95v-.117a.512.512,0,0,1,0,.117c12.344,4.619,56.761,6.752,57.616,7.034,1.594,1.231,5.346,1.313,8.722.375a12.5,12.5,0,0,0,4.185-1.923c2.966-2.227,7.409.914,9.378,2.427,1.3.973,4.326.938,5.322-.059C813.57,332.1,789.516,333.787,789.516,333.787Z" transform="translate(1033.02 359.602)" fill="url(#radial-gradient)"/>
      <path id="Path_599" data-name="Path 599" d="M730.334,260.539l-.6,1.219-1.29,2.614-.234.469-2.45,4.97-20.092-7.9,8.417-13.34,13.305,9.8Z" transform="translate(1031.971 350.828)" fill="url(#radial-gradient-2)"/>
      <path id="Path_600" data-name="Path 600" d="M696.5,294.885l20.9,32.225,23.937-13.751s-6.518-25.063-12.895-38.86c-3.927-8.569-15.239-12.824-26.188-6C692.7,274.441,692.983,288.426,696.5,294.885Z" transform="translate(1030.005 353.678)" fill="#033cfb"/>
      <path id="Path_601" data-name="Path 601" d="M661.461,299.608a1.509,1.509,0,0,0,0,.281c0,.2,0,.246,0,.352,0,.363.141,1.008.281,1.981,1.09,7.291,4.994,32.249,8.628,55.424s7.034,44.546,7.034,44.546l7.209-1.172s-.246-1.583-.68-4.337c-1.524-9.683-5.322-33.89-8.745-55.776-1.712-10.949-3.329-21.312-4.525-28.978-.586-3.845-1.078-7.034-1.418-9.237-.164-1.114-.293-1.993-.387-2.591a3.344,3.344,0,0,0-.094-.68v-.141h0l-2.157.246,2.169-.188v-.059l-2.157.246,2.169-.188-3.376.281H668.8v-.281l-3.376.281h-3.915Z" transform="translate(1024.355 359.563)" fill="#414042"/>
      <path id="Path_602" data-name="Path 602" d="M1.9,0H6.928A1.911,1.911,0,0,1,8.839,1.911V86.419H0V1.9A1.911,1.911,0,0,1,1.9,0Z" transform="translate(1759.175 857.986) rotate(180)" fill="#414042"/>
      <path id="Path_603" data-name="Path 603" d="M4.384,0H44.241a4.4,4.4,0,0,1,4.4,4.4V7.385H0V4.4A4.4,4.4,0,0,1,4.384,0Z" transform="translate(1779.068 780.171) rotate(180)" fill="#414042"/>
      <rect id="Rectangle_52" data-name="Rectangle 52" width="107.765" height="17.232" rx="4.37" transform="translate(1808.645 773.02) rotate(180)" fill="#808285"/>
      <path id="Path_604" data-name="Path 604" d="M681.12,465.511a5.17,5.17,0,1,0,1.514-3.667,5.181,5.181,0,0,0-1.514,3.667Z" transform="translate(1027.742 387.305)" fill="#414042"/>
      <circle id="Ellipse_2" data-name="Ellipse 2" cx="5.181" cy="5.181" r="5.181" transform="translate(1790.299 847.635)" fill="#414042"/>
      <rect id="Rectangle_53" data-name="Rectangle 53" width="17.795" height="15.544" transform="translate(1763.653 845.724) rotate(180)" fill="#414042"/>
      <path id="Path_605" data-name="Path 605" d="M0,0H91.788V2.966a4.361,4.361,0,0,1-4.361,4.361H4.361A4.361,4.361,0,0,1,0,2.966V0Z" transform="translate(1800.65 849.381) rotate(180)" fill="#414042"/>
      <path id="Path_606" data-name="Path 606" d="M659.607,305.922l3.892,28.884a7.526,7.526,0,1,0,14.911-2.016l-3.892-28.861a7.526,7.526,0,0,0-14.911,2.016" transform="translate(1024.029 359.274)" fill="#808285"/>
      <path id="Path_607" data-name="Path 607" d="M810.493,466.871a21.2,21.2,0,0,0,7.034.246,7.77,7.77,0,0,1,2.6-.059,3.048,3.048,0,0,1,2.837-1.946,4.689,4.689,0,0,1,3.271,1.465,4.688,4.688,0,0,0,1.418,1.172,3.4,3.4,0,0,0,1.371.152l16.271-.34a3.74,3.74,0,0,0,3.013-1,3.516,3.516,0,0,0,.492-2.251,7.034,7.034,0,0,0-1.079-4.22c-1.172-1.465-3.282-1.489-5.076-2s-3.435-1.36-5.345-1.946a15.521,15.521,0,0,1-9.577-8.722,3.832,3.832,0,0,0-1.1-1.782,3.282,3.282,0,0,0-2.954,0,27.768,27.768,0,0,0-3.411,1.524c-.762.41-1.606,1.043-1.512,1.9.129,1.114,1.805,1.911,1.3,2.919-.281.574-1.078.61-1.723.539a30.655,30.655,0,0,1-9.378-2.555,24.155,24.155,0,0,0-.375,4.3l.434,9.237A6.353,6.353,0,0,0,810.493,466.871Z" transform="translate(1049.696 384.714)" fill="#1a1d3e"/>
      <rect id="Rectangle_54" data-name="Rectangle 54" width="600.195" height="8.218" transform="translate(1683.565 857.821)" fill="#031efb" opacity="0.35"/>
      <path id="Path_608" data-name="Path 608" d="M673.625,143.842a1.653,1.653,0,0,1-.985-1.512c0-2.2,0-4.455.106-6.67a1.641,1.641,0,0,1,1.735-1.559c2.251.117,1.489,2.344,1.512,8.276a1.641,1.641,0,0,1-1.676,1.629,1.711,1.711,0,0,1-.692-.164Z" transform="translate(1026.282 331.109)" fill="#91b3fa"/>
      <path id="Path_609" data-name="Path 609" d="M674.552,137.557c.7-4.185,1.594-8.382,2.638-12.5a1.641,1.641,0,0,1,2.028-1.172c2.45.656.727,1.934-1.36,14.255a1.641,1.641,0,0,1-1.922,1.325,1.7,1.7,0,0,1-1.383-1.911Zm8.991-32.2c1.559-3.951,3.306-7.924,5.134-11.652A1.688,1.688,0,0,1,691.7,95.18c-1.817,3.716-3.517,7.549-5.029,11.418a1.688,1.688,0,0,1-3.13-1.243Zm15.415-29.623c2.345-3.517,4.853-7.034,7.467-10.339a1.676,1.676,0,0,1,2.649,2.028c-2.555,3.271-5.017,6.682-7.3,10.14a1.688,1.688,0,0,1-2.813-1.829Zm21.323-23.445a1.629,1.629,0,0,1,0-2.345c3.024-2.966,6.225-5.861,9.483-8.581,1.676-1.407,3.868,1.172,2.192,2.532-3.2,2.673-6.318,5.51-9.3,8.417a1.688,1.688,0,0,1-2.38-.047Zm25.79-20.913a1.641,1.641,0,0,1,.469-2.286c3.6-2.344,7.327-4.466,11.09-6.471a1.676,1.676,0,0,1,1.641,2.919c-3.693,1.958-7.35,4.091-10.867,6.33a1.723,1.723,0,0,1-2.321-.516ZM776.55,17.026a1.676,1.676,0,0,1-.867-.9,1.618,1.618,0,0,1,.926-2.133c4.009-1.524,8.124-2.9,12.227-4.1a1.711,1.711,0,0,1,2.1,1.114,1.618,1.618,0,0,1-.973,2.028c-4.033,1.172-8.053,2.532-11.98,4.021a1.7,1.7,0,0,1-1.36-.035ZM808.916,8.4a1.747,1.747,0,0,1-.961-1.172,1.629,1.629,0,0,1,1.418-1.934c4.243-.68,8.569-1.172,12.895-1.559a1.723,1.723,0,0,1,1.841,1.512,1.629,1.629,0,0,1-1.5,1.782c-4.208.352-8.44.856-12.6,1.524a1.758,1.758,0,0,1-1.02-.176Zm32.612-3.517A1.63,1.63,0,0,1,843.24,3.31c4.314.188,8.675.551,12.965,1.078a1.653,1.653,0,1,1-.363,3.282c-4.2-.516-8.475-.867-12.7-1.055A1.7,1.7,0,0,1,841.6,4.869ZM946.234,48.255c-9.484-8.358-11.723-8.393-10.222-10.374a1.676,1.676,0,0,1,2.344-.293c3.517,2.6,6.858,5.369,10.093,8.206a1.653,1.653,0,1,1-2.145,2.415ZM875.043,9.441a1.653,1.653,0,0,1,2.016-1.172c4.185,1.055,8.393,2.345,12.508,3.657a1.653,1.653,0,1,1-1.032,3.13c-4.021-1.348-8.206-2.556-12.25-3.587a1.664,1.664,0,0,1-1.243-2.028Zm44.065,19.3c-10.961-6.283-13.211-5.861-12.133-8.135a1.712,1.712,0,0,1,2.227-.762c3.927,1.864,7.807,3.9,11.558,6.049a1.653,1.653,0,0,1,.633,2.262,1.676,1.676,0,0,1-2.286.586Z" transform="translate(1026.608 308.58)" fill="#91b3fa"/>
      <path id="Path_612" data-name="Path 612" d="M758.775,283c-4.185-2.063-8.335-4.326-12.32-6.729a1.653,1.653,0,0,1-.586-2.274c1.325-2.192,2.122,0,14.36,6.061a1.665,1.665,0,0,1,.785,2.216,1.711,1.711,0,0,1-2.239.727ZM778.7,289.63c.809-2.427,2.133-.434,15.3,2.86a1.676,1.676,0,0,1,1.243,2,1.653,1.653,0,0,1-2.016,1.172c-4.5-1.172-9.038-2.462-13.457-3.962a1.665,1.665,0,0,1-1.008-2.075Zm-50.946-26.387c-3.634-2.919-7.186-6.014-10.55-9.214a1.653,1.653,0,0,1-.07-2.344c1.794-1.829,2.087.481,12.719,9a1.653,1.653,0,0,1,.27,2.345A1.688,1.688,0,0,1,727.757,263.243Zm87.392,36.34a1.688,1.688,0,0,1-.973-1.688A1.63,1.63,0,0,1,816,296.441c4.537.5,9.132.832,13.668.961a1.7,1.7,0,0,1,1.665,1.688,1.641,1.641,0,0,1-1.7,1.606c-4.63-.129-9.378-.457-13.961-.973a1.947,1.947,0,0,1-.527-.129Zm36.246.07a1.677,1.677,0,0,1-.973-1.313,1.63,1.63,0,0,1,1.454-1.829c4.5-.481,9.05-1.172,13.493-2.028a1.7,1.7,0,0,1,1.993,1.3,1.629,1.629,0,0,1-1.289,1.946c-4.537.879-9.179,1.571-13.774,2.063a1.653,1.653,0,0,1-.9-.094Zm35.25-7.772a1.676,1.676,0,0,1-.891-.961,1.606,1.606,0,0,1,1.008-2.087c4.279-1.454,8.546-3.095,12.672-4.9a1.723,1.723,0,0,1,2.227.856,1.618,1.618,0,0,1-.821,2.169c-4.22,1.84-8.581,3.517-12.895,4.994a1.653,1.653,0,0,1-1.3-.059ZM919.2,276.7a1.641,1.641,0,0,1-.727-.633,1.618,1.618,0,0,1,.516-2.262c3.845-2.345,7.631-4.865,11.254-7.514a1.7,1.7,0,0,1,2.344.352,1.618,1.618,0,0,1-.316,2.344c-3.7,2.708-7.561,5.287-11.476,7.667a1.676,1.676,0,0,1-1.594.059ZM947,254.486c-1.84-1.84.492-2.016,9.249-12.121a1.68,1.68,0,0,1,2.567,2.169c-2.989,3.446-6.166,6.811-9.448,9.988A1.688,1.688,0,0,1,947,254.5Zm22.906-27.325c-2.2-1.407,0-2.075,6.283-13.88a1.688,1.688,0,0,1,2.977,1.571c-2.145,4.021-4.478,8.007-6.951,11.828a1.676,1.676,0,0,1-2.309.492Zm16.036-31.792a1.665,1.665,0,0,1-.891-2.075c1.536-4.208,2.9-8.522,4.056-12.813a1.653,1.653,0,0,1,2.051-1.172,1.676,1.676,0,0,1,1.172,2.04c-1.172,4.373-2.579,8.78-4.15,13.082a1.665,1.665,0,0,1-2.145.961Z" transform="translate(1033.868 338.886)" fill="#91b3fa"/>
      <path id="Path_613" data-name="Path 613" d="M704.583,229.887c-3.657-4.56-5.533-6.412-3.775-7.667s2.649.973,6.389,5.639a1.641,1.641,0,0,1-.258,2.345,1.711,1.711,0,0,1-2.356-.317Z" transform="translate(1031.019 346.23)" fill="#91b3fa"/>
      <path id="Path_614" data-name="Path 614" d="M791.258,141.877A27.548,27.548,0,0,1,822.909,118.7c15.368,2.345,26.176,16.505,24.078,31.651a27.548,27.548,0,0,1-31.651,23.187h0C799.968,171.172,789.171,156.988,791.258,141.877Zm24.43,29.177Zm6.576-47.465a22.6,22.6,0,0,0-26.024,19.049A23.316,23.316,0,0,0,816.028,168.6a22.613,22.613,0,0,0,26.012-19.014,23.328,23.328,0,0,0-19.776-26Z" transform="translate(1046.67 328.396)" fill="#bdd0fb"/>
      <path id="Path_615" data-name="Path 615" d="M796.413,216.5h0a74.633,74.633,0,0,1-10.843-6.143,2.485,2.485,0,0,1-.891-3.083,2.244,2.244,0,0,1,.211-.363,2.52,2.52,0,0,1,3.517-.61,69.683,69.683,0,0,0,12.625,6.823h0c33.48,13.856,71.508-.8,86.255-32.671.375-.821.739-1.641,1.078-2.485,13.9-33.784-2.931-72.481-37.207-86.665s-73.442,1.454-87.333,35.168c-8.206,20.057-3.282,34.265-4.232,36.34a2.544,2.544,0,0,1-4.783-.7,69.644,69.644,0,0,1,5.51-40.208c25.731-55.834,107.613-53.549,132.16,3.634a69.678,69.678,0,0,1,.551,54.4c-.375.9-.762,1.805-1.172,2.684a69.433,69.433,0,0,1-37.512,35.508,72.68,72.68,0,0,1-55.213-.41C798.219,217.3,797.316,216.93,796.413,216.5Z" transform="translate(1040.283 322.015)" fill="#bdd0fb"/>
      <path id="Path_634" data-name="Path 634" d="M846.725,444.16s-1.395,7.491-2.122,14.911a5.123,5.123,0,0,0,4.841,5.592c9.894.5,31.029,1.5,38.626,1.243a1.676,1.676,0,0,0,1.489-2.274h0a3.762,3.762,0,0,0-1.887-2.028l-34.781-16.412Z" transform="translate(1055.899 384.519)" fill="#1a1d3e"/>
      <path id="Path_635" data-name="Path 635" d="M845.52,440.581l.985,8.979s6.084,2.907,10.292-.258l-2.438-10.023Z" transform="translate(1056.061 383.679)" fill="url(#linear-gradient-2)"/>
      <path id="Path_636" data-name="Path 636" d="M851.672,296.536c-.492,2.345-3.587,116.909,8.206,168.371a1.758,1.758,0,0,1-1.043,2.016,30.329,30.329,0,0,1-10,1.934,3,3,0,0,1-2.954-2.18c-3.388-11.957-19.588-71.8-21.241-128.843-1.829-63.735,0-2.169,0-2.169l1.817-39.376Z" transform="translate(1052.324 359.048)" fill="#0a2033"/>
      <path id="Path_637" data-name="Path 637" d="M806.834,299.973c-10.55,60.359.75,149.439,4.689,166.882a2.684,2.684,0,0,0,2.169,2.087,18.217,18.217,0,0,0,7.842-.235,2.5,2.5,0,0,0,1.805-2.274c.692-14.067.516-100.509,10.175-134.575a7.725,7.725,0,0,1,3.036-4.244l18.24-12.707,1.583-20.808Z" transform="translate(1048.642 358.671)" fill="#243c55"/>
      <path id="Path_638" data-name="Path 638" d="M871.026,202.247c-30.021-.774-63.22,7.28-63.22,7.28-9.448,52.13-2.638,112.419-2.638,112.419,23.187,6.318,49.493-3.247,49.493-3.247,4.068-21.792,22.683-83.031,22.683-83.031a99.079,99.079,0,0,0,36.809-11.3c-7.5-8.874-10.984-20.1-12.473-26.727a100.813,100.813,0,0,1-30.654,4.607Z" transform="translate(1048.701 342.055)" fill="#0396fb"/>
      <path id="Path_639" data-name="Path 639" d="M944.585,164.79a5.732,5.732,0,0,0-6.658-1.934c-4.6,18.615-27.9,33.527-51.767,40.689,1.489,6.635,4.959,17.865,12.461,26.739C938.337,208.457,944.585,164.79,944.585,164.79Z" transform="translate(1063.062 335.997)" fill="url(#radial-gradient-3)"/>
      <path id="Path_642" data-name="Path 642" d="M823.74,237.287l-11.23-29.177S784.281,226.866,779.44,251a66.279,66.279,0,0,1,24.313,6.776C805.886,246.4,823.74,237.287,823.74,237.287Z" transform="translate(1044.678 343.858)" fill="#0396fb"/>
      <path id="Path_643" data-name="Path 643" d="M848.086,258.578s-31.651,17.5-42.131,2.2a11.957,11.957,0,0,1-2.1-9.3,66.278,66.278,0,0,0-24.312-6.776,33.362,33.362,0,0,0,3.411,22.894c18.276,34.218,69.163-1.172,69.163-1.172Z" transform="translate(1044.574 350.163)" fill="url(#radial-gradient-4)"/>
      <path id="Path_644" data-name="Path 644" d="M837.279,180.87l-9.812,27.536a1.008,1.008,0,0,0,.445,1.172c2.591,1.465,11.934,5.709,23.3-1.348a4.689,4.689,0,0,0,2.192-3.329l3.317-23.879Z" transform="translate(1052.943 339.166)" fill="url(#radial-gradient-5)"/>
      <path id="Path_645" data-name="Path 645" d="M856.985,158.89s9.484,19.413,7.807,27.384-14.466,7.725-25.379,1.559l-6.893-21.1Z" transform="translate(1053.822 335.38)" fill="url(#radial-gradient-6)"/>
      <path id="Path_646" data-name="Path 646" d="M843.287,179.359a.821.821,0,0,0,.375-1.172,21.1,21.1,0,0,1-2.86-6.225s-1.876-1.172,4.818-2.755,16.693-3.927,18.85-9.6-3.142-19.53-11.816-8.487a.821.821,0,0,1-1.289,0c-1.383-1.84-5.041-5.662-10.187-3.411-4.806,2.1-5.381,5.615-5.334,7.385a.82.82,0,0,1-.973.821c-2.415-.492-8.206-.938-11.008,5.006-2.274,4.888-.856,7.69.457,9.062a.821.821,0,0,1-.352,1.348c-1.606.469-3.669,1.794-3.517,5.533.234,5.17,6.014,4.759,7.655,4.548a.844.844,0,0,1,.727.258c1.383,1.571,7.667,8.206,14.536,9.12a.821.821,0,0,0,.867-1.078l-2.884-8.675a.809.809,0,0,1,.445-1.008Z" transform="translate(1051.741 333.327)" fill="#414042"/>
      <path id="Path_647" data-name="Path 647" d="M842.121,176.031s-7.42-5.193-8.007-.879,6.67,6.307,10.281,4.689Z" transform="translate(1054.091 337.886)" fill="url(#radial-gradient-7)"/>
      <path id="Path_648" data-name="Path 648" d="M832.409,289.713l17.232-60.219a1.77,1.77,0,0,1,1.489-1.266c3.118-.363,12.18-1.383,22.625-2.274,12.59-1.055,27.208-1.922,35.953-1.172a1.758,1.758,0,0,1,1.43,2.532c-4.959,10.046-25.4,50.934-35.637,64.322a1.758,1.758,0,0,1-1.418.7l-40-.434a1.747,1.747,0,0,1-1.676-2.192Z" transform="translate(1053.793 346.681)" fill="#031efb"/>
      <path id="Path_649" data-name="Path 649" d="M836.244,270.74s-2.4-9.882-1.43-13.387,2.837-8.007,9.1-7.034a91.763,91.763,0,0,1,13.633,3.646s-.363,4.56-5.123,3.083l2.954,2.286s-.422,3.657-4.443,1.7l2.743,3.024a3.2,3.2,0,0,1-4.689,1.078C845.986,263.238,844.567,271.924,836.244,270.74Z" transform="translate(1054.177 351.106)" fill="url(#radial-gradient-8)"/>
      <path id="Path_650" data-name="Path 650" d="M866.69,241.824a5.064,5.064,0,1,0,5.064-5.064A5.064,5.064,0,0,0,866.69,241.824Z" transform="translate(1059.708 348.793)" fill="#91b3fa"/>
      <path id="Path_651" data-name="Path 651" d="M848.959,246.7l-1.289-.375,3.517-11.91a5.427,5.427,0,0,1,4.091-3.8c11.125-2.345,40.431-2.8,41.674-2.813v1.336c-.293,0-30.479.492-41.416,2.79a4.091,4.091,0,0,0-3.071,2.872Z" transform="translate(1056.431 347.25)" fill="#91b3fa"/>
      <path id="Path_652" data-name="Path 652" d="M851,443.229a1.876,1.876,0,0,0,0-2.989" transform="translate(1057.005 383.844)" fill="#231f20"/>
      <path id="Path_653" data-name="Path 653" d="M820.8,463.57" transform="translate(1051.803 387.863)" fill="#231f20"/>
      <path id="Path_654" data-name="Path 654" d="M785.3,344.535h.129l66.713-.07a2.978,2.978,0,0,0,0-5.955l-66.713.059a2.989,2.989,0,0,0-.152,5.967Z" transform="translate(1045.211 366.32)" fill="#231f20"/>
      <path id="Path_655" data-name="Path 655" d="M868.069,288.252l-28.029,60.559a2.979,2.979,0,1,0,5.4,2.509L873.52,290.8c1.09-2.345-1.172-5.392-4.759-3.833a9.22,9.22,0,0,1-.692,1.289Z" transform="translate(1055.069 357.368)" fill="#231f20"/>
      <path id="Path_659" data-name="Path 659" d="M999.945,385.375c-.141-.223-27.255-3.259-27.255-3.259a62.551,62.551,0,0,1-1.887,19.6c-2.767,11.347-42.588,60.524-42.588,60.524l4.173,13.235a67.135,67.135,0,0,1-38.1,2.286l25.872-15.521s24.2-82.55,39.048-97.262l27.185-9.378Z" transform="translate(1064.462 369.264)" fill="url(#radial-gradient-9)"/>
      <path id="Path_661" data-name="Path 661" d="M931.889,454s4.49,4.349,1.454,9.19c0,0-35.6,6.307-45.272,3.446,0,0,2.016-4.583,12.895-9.788l-.8.61a1.3,1.3,0,0,0,.856,2.345C908.2,459.416,923.038,458.1,931.889,454Z" transform="translate(1063.391 386.214)" fill="#231f20"/>
      <path id="Path_670" data-name="Path 670" d="M886.752,283.62H951.32a12.3,12.3,0,0,1,11.136,7.033l29.857,63.3H912.1a7.49,7.49,0,0,1-6.963-4.689l-23.14-58.613a5.146,5.146,0,0,1,4.759-7.033Z" transform="translate(1062.282 356.865)" fill="#231f20"/>
      <path id="Path_685" data-name="Path 685" d="M756.371,487.362a2.345,2.345,0,0,1-1-.223,2.837,2.837,0,0,1-1.313-3.6L806.813,349.9a2.427,2.427,0,0,1,3.294-1.442,2.849,2.849,0,0,1,1.313,3.611l-52.7,133.637A2.52,2.52,0,0,1,756.371,487.362Z" transform="translate(1040.27 367.998)" fill="#6d6e71"/>
      <path id="Path_686" data-name="Path 686" d="M814.737,487.362a2.521,2.521,0,0,1-2.345-1.653L759.712,352.072a2.849,2.849,0,0,1,1.313-3.611,2.426,2.426,0,0,1,3.294,1.442L817.07,483.54a2.825,2.825,0,0,1-1.313,3.6,2.345,2.345,0,0,1-1.02.223Z" transform="translate(1041.243 367.998)" fill="#6d6e71"/>
      <path id="Path_691" data-name="Path 691" d="M1197.6,346.616a2.345,2.345,0,0,0-.95-2.473,5.65,5.65,0,0,0-3.517-1.1H735.955a6.237,6.237,0,0,0-4.384,1.594,2.485,2.485,0,0,0-.34,3.318l4.959,7.1a7.7,7.7,0,0,0,6.3,2.673h447.59c2.509,0,4.689-1.172,5.158-2.825Z" transform="translate(1036.291 367.1)" fill="#414042"/>
      <path id="Path_694" data-name="Path 694" d="M753.328,244.306a30.865,30.865,0,0,1-4.279,10.961c-3.423,5.287-11.148,13.059-13.282,13.727-.867.258-3.927-1.172-7.268-2.872-1.09-.574-2.216-1.172-3.318-1.794-3.845-2.134-7.233-4.2-7.233-4.2l-5.1-7.2a58.847,58.847,0,0,1,11.429-25.672c5.662-7.42,18.322-2.966,22.929.6S754.336,237.026,753.328,244.306Z" transform="translate(1033.208 346.464)" fill="url(#radial-gradient-10)"/>
      <path id="Path_695" data-name="Path 695" d="M732.846,244.8c-.774-3.517-3.962-6.705-6.846-2.028a9.131,9.131,0,0,0-1.09,3.892c-.516,4.865-6.178,7.034-10.41,7.327a7.938,7.938,0,0,1-2.04-.07s1.078-8.006,3.446-17.654,7.749-19.495,15.521-15.544c0,0,7.151-3.341,11.5,2.2,0,0,7.385-2.649,11.207,3.294,0,0,10.363,1.958,12.309,8.393,2.462,8.206-9,10.175-12.824,7.854s-6.717-6.705-9.378-6.635-2.04,4.126-2.438,6.635-4.267-.07-5.861,3.294-2.462,5.24-3.517,4.689S732.846,244.8,732.846,244.8Z" transform="translate(1033.141 345.86)" fill="#3a3a3a"/>
      <path id="Path_610" data-name="Path 610" d="M923.263,59.622c-3.517-4.373-5.861-5.932-4.138-7.385a1.688,1.688,0,0,1,2.345.188c3.857,4.373,5.861,6.154,4.126,7.479a1.911,1.911,0,0,1-2.333-.281Z" transform="translate(1068.64 316.942)" fill="#91b3fa"/>
      <path id="Path_611" data-name="Path 611" d="M953.665,164.926a1.676,1.676,0,0,1-.973-1.723c.27-2.157.492-4.337.68-6.494a1.629,1.629,0,0,1,1.805-1.477,1.7,1.7,0,0,1,1.536,1.805c-.187,2.192-.422,4.419-.692,6.623a1.641,1.641,0,0,1-1.876,1.407,1.734,1.734,0,0,1-.48-.141Z" transform="translate(1074.52 334.748)" fill="#91b3fa"/>
      <path id="Path_616" data-name="Path 616" d="M934.994,97.328c-.645-2.157-1.172-4.373-1.688-6.588a1.653,1.653,0,0,1,1.278-1.981c2.262-.492,1.946,2.04,3.611,7.62a1.677,1.677,0,0,1-1.172,2.075A1.653,1.653,0,0,1,934.994,97.328Z" transform="translate(1071.176 323.289)" fill="#91b3fa"/>
      <path id="Path_617" data-name="Path 617" d="M931.69,83.783a88.665,88.665,0,0,1,1.641-13.657,1.668,1.668,0,0,1,3.271.656c-2.344,11.945-.516,14.852-3.318,14.735a1.665,1.665,0,0,1-1.594-1.735Zm9.53-32.577a1.676,1.676,0,0,1-.774-2.239A88.57,88.57,0,0,1,947.481,37.1a1.676,1.676,0,0,1,2.743,1.923,83.067,83.067,0,0,0-6.764,11.383,1.723,1.723,0,0,1-2.239.8ZM962.8,23.365a1.558,1.558,0,0,1-.574-.434,1.653,1.653,0,0,1,.188-2.345,88.259,88.259,0,0,1,11.113-8.1,1.666,1.666,0,0,1,1.747,2.837,85.948,85.948,0,0,0-10.691,7.8,1.665,1.665,0,0,1-1.782.246ZM993.644,6.4a1.712,1.712,0,0,1-.9-1.032,1.665,1.665,0,0,1,1.172-2.087A87.38,87.38,0,0,1,1007.277.306a1.669,1.669,0,1,1,.469,3.306,83.875,83.875,0,0,0-12.895,2.86,1.641,1.641,0,0,1-1.207-.07Zm34.1-4.923A1.664,1.664,0,0,1,1029.585,0a88.9,88.9,0,0,1,13.5,2.6,1.683,1.683,0,1,1-.844,3.259,83.767,83.767,0,0,0-13-2.509,1.664,1.664,0,0,1-1.5-1.876Z" transform="translate(1070.904 308.009)" fill="#91b3fa"/>
      <path id="Path_618" data-name="Path 618" d="M1048.573,16.053c-5.041-3.517-7.256-3.833-6.131-5.779a1.653,1.653,0,0,1,2.286-.61c1.946,1.172,3.88,2.345,5.744,3.646a1.668,1.668,0,1,1-1.9,2.743Z" transform="translate(1089.932 309.635)" fill="#91b3fa"/>
      <path id="Path_619" data-name="Path 619" d="M1078.513,66.634c-.785-6.1-1.993-7.971.211-8.429a1.665,1.665,0,0,1,1.969,1.3c.457,2.2.844,4.455,1.172,6.705a1.666,1.666,0,1,1-3.306.422Z" transform="translate(1096.016 318.031)" fill="#91b3fa"/>
      <path id="Path_620" data-name="Path 620" d="M982.153,154.753c.867-2.638,2.849.07,14.747,2.063a1.67,1.67,0,1,1-.551,3.294,89.645,89.645,0,0,1-13.188-3.247,1.676,1.676,0,0,1-1.008-2.11Zm34.312,4.689a1.688,1.688,0,0,1,1.536-1.805c12.121-1,14.208-3.517,14.852-.832a1.653,1.653,0,0,1-1.231,2.016,87.029,87.029,0,0,1-13.352,2.145,1.676,1.676,0,0,1-1.805-1.465Zm33.421-9.1c-1.3-2.45,1.993-1.981,11.723-9.226a1.676,1.676,0,0,1,1.993,2.684,87.912,87.912,0,0,1-11.418,7.233,1.664,1.664,0,0,1-2.3-.633Zm27.149-21.476c-2.157-1.758,1.067-2.614,7.151-13.071a1.676,1.676,0,0,1,2.884,1.688,89.065,89.065,0,0,1-7.678,11.136A1.688,1.688,0,0,1,1077.035,128.87Zm15.392-32.507c3.306-11.723,1.653-14.548,4.419-14.219a1.676,1.676,0,0,1,1.454,1.864,87.48,87.48,0,0,1-2.6,13.305,1.67,1.67,0,1,1-3.212-.914Z" transform="translate(1079.581 322.156)" fill="#91b3fa"/>
      <path id="Path_621" data-name="Path 621" d="M967.006,138.789c-1.9-1.231-3.775-2.544-5.568-3.9a1.676,1.676,0,0,1-.328-2.345c1.407-1.852,2.8.281,7.7,3.435a1.676,1.676,0,1,1-1.805,2.813Z" transform="translate(1075.914 330.723)" fill="#91b3fa"/>
      <path id="Path_622" data-name="Path 622" d="M992.364,116.346a2.509,2.509,0,1,1,2.415-4.384,36.445,36.445,0,0,0,34.816.9c28.7-14.7,25.309-57.065-5.416-66.971a36.422,36.422,0,0,0-44.17,19.366c-7.643,16.587,1,25.215-4.291,26.434a2.5,2.5,0,0,1-3-1.876,41.369,41.369,0,1,1,27.607,30.057h0a42.074,42.074,0,0,1-7.96-3.528Z" transform="translate(1077.788 314.751)" fill="#bdd0fb"/>
      <path id="Path_623" data-name="Path 623" d="M988.722,157.3c-.059-.785-.856-1.465-2.216-2,1.477-.809,2.286-1.676,2.216-2.532-.2-2.579-8.37-4.033-18.24-3.235s-17.7,3.517-17.49,6.119c0,.774.856,1.454,2.216,1.993-1.477.821-2.344,1.688-2.216,2.544s.856,1.454,2.216,1.993c-1.477.821-2.344,1.688-2.216,2.532s.856,1.465,2.216,2c-1.477.809-2.344,1.688-2.216,2.532.082,1.172,1.735,2.063,4.408,2.661a22.827,22.827,0,0,0,0,2.79c.387,4.759,5.732,8.487,12.813,8.487s13.27-5.088,13.27-9.859a25.075,25.075,0,0,0-.141-3.106c3.388-1.172,5.451-2.509,5.334-3.845-.059-.785-.856-1.465-2.216-2,1.477-.821,2.286-1.688,2.216-2.532s-.856-1.465-2.216-2C987.984,159.027,988.792,158.148,988.722,157.3Z" transform="translate(1074.571 333.73)" fill="#0a2033"/>
      <path id="Path_624" data-name="Path 624" d="M965.179,169.85a41.838,41.838,0,0,1-7.831-.645.235.235,0,0,1-.188-.27.246.246,0,0,1,.281-.188,51.38,51.38,0,0,0,13.036.41,56.563,56.563,0,0,0,10.937-1.887.258.258,0,0,1,.3.164.234.234,0,0,1-.164.293,56.807,56.807,0,0,1-11.031,1.9C968.7,169.78,966.9,169.85,965.179,169.85Z" transform="translate(1075.291 336.822)" fill="url(#linear-gradient-3)"/>
      <path id="Path_625" data-name="Path 625" d="M965.486,166.163a37.515,37.515,0,0,1-9.612-1.043.239.239,0,0,1,.141-.457c3.411.973,8.921,1.278,14.724.809a46.585,46.585,0,0,0,14.337-3.118.223.223,0,0,1,.3.117.235.235,0,0,1-.106.316,46.891,46.891,0,0,1-14.489,3.153C968.945,166.093,967.2,166.163,965.486,166.163Z" transform="translate(1075.042 335.973)" fill="url(#linear-gradient-4)"/>
      <path id="Path_626" data-name="Path 626" d="M965.512,162.286a34.7,34.7,0,0,1-10.128-1.172.235.235,0,1,1,.152-.445c3.364,1.1,9.085,1.477,15.239.973a46.586,46.586,0,0,0,14.337-3.118.223.223,0,0,1,.3.117.234.234,0,0,1-.105.316,46.891,46.891,0,0,1-14.489,3.153C969.029,162.216,967.235,162.286,965.512,162.286Z" transform="translate(1074.958 335.313)" fill="url(#linear-gradient-5)"/>
      <path id="Path_627" data-name="Path 627" d="M965.281,158.418a41.5,41.5,0,0,1-8.534-.774.234.234,0,0,1-.176-.281.246.246,0,0,1,.281-.188,49.235,49.235,0,0,0,13.692.551,46.35,46.35,0,0,0,14.255-3.083.239.239,0,1,1,.2.434,47.079,47.079,0,0,1-14.407,3.118C968.8,158.348,967.039,158.418,965.281,158.418Z" transform="translate(1075.189 334.644)" fill="url(#linear-gradient-6)"/>
      <path id="Path_628" data-name="Path 628" d="M950.671,150.957a33.444,33.444,0,0,0-5.967-11.723,77.205,77.205,0,0,1-16.693-42.975C926.3,66.367,952.8,51.4,977,53.437s48.062,20.046,45.46,47.851c-1.606,17.115-11.183,30.1-18.322,37.512a39.856,39.856,0,0,0-9.507,16.845c-2.134,7.737-7.233,17.361-19.331,17.947C959.662,174.39,953.168,159.784,950.671,150.957Z" transform="translate(1070.257 317.183)" fill="#0396fb"/>
      <path id="Path_629" data-name="Path 629" d="M971.792,159.211l8.464-55.1c.176-1.172.739-1.9,1.254-1.7s.785,1.278.61,2.415v.094l-9.648,54.557c-.07.41-.281.668-.457.574A.872.872,0,0,1,971.792,159.211Z" transform="translate(1077.809 325.646)" fill="url(#linear-gradient-7)"/>
      <path id="Path_630" data-name="Path 630" d="M965.815,159.582l-8.464-55.1c-.176-1.172-.739-1.9-1.254-1.712s-.785,1.278-.609,2.415v.094l9.648,54.557c.07.41.281.668.457.574A.838.838,0,0,0,965.815,159.582Z" transform="translate(1074.994 325.709)" fill="url(#linear-gradient-8)"/>
      <path id="Path_631" data-name="Path 631" d="M982.657,100.839a.891.891,0,0,0-1.172-.281L976.8,102.75l-1.641-4.689a.973.973,0,0,0-.563-.574,1.172,1.172,0,0,0-1.454.445h0l-3.868,7.034-3.6-10.07h0a1.09,1.09,0,0,0-.539-.61,1.407,1.407,0,0,0-1.782.352l-5.451,7.549a.645.645,0,0,0,.188.938.9.9,0,0,0,1.172-.117l4.771-5.322,4.3,9.566h0a.75.75,0,0,0,.375.363.891.891,0,0,0,1.172-.281l4.15-6.658,1.559,3.364h0v.07a.891.891,0,0,0,1.114.281l5.6-2.614a.668.668,0,0,0,.352-.938Z" transform="translate(1075.397 324.221)" fill="#fff"/>
      <path id="Path_632" data-name="Path 632" d="M993.3,121.417a1.078,1.078,0,0,1-.856-1.711,64.517,64.517,0,0,0,3.927-5.967,1.069,1.069,0,0,1,1.852,1.067,62.878,62.878,0,0,1-4.056,6.178,1.09,1.09,0,0,1-.867.434Z" transform="translate(1081.333 327.51)" fill="#fff"/>
      <path id="Path_633" data-name="Path 633" d="M999.238,116.038a1.067,1.067,0,0,1-.985-1.5,50.137,50.137,0,0,0,1.172-38.063,1.09,1.09,0,0,1,.539-1.43,1.067,1.067,0,0,1,1.418.527c.34.739,8.206,18.346-1.172,39.857A1.055,1.055,0,0,1,999.238,116.038Z" transform="translate(1082.354 320.92)" fill="#fff"/>
      <path id="Path_640" data-name="Path 640" d="M936.864,172.354c.3.985-3.282,2.438-5.357-1.594,0-1.923-1.172-10.163,0-11.723,6.2-8.288,18.158-18.627,18.158-18.627a2.825,2.825,0,0,1,.317,3.927l-5.861,5.932c1.172,2.192,2.638,4.044,3.306,6.682a8.112,8.112,0,0,1-.867,5.861c-1.032,1.817-2.427,4.173-3.751,6.014A7.983,7.983,0,0,1,936.864,172.354Z" transform="translate(1070.783 332.197)" fill="url(#radial-gradient-11)"/>
      <path id="Path_641" data-name="Path 641" d="M941.025,152.12l-5.287,4.4-1.688,4.408,4.63,5.24s1.653-8.768,2.837-10.656S942.2,152.683,941.025,152.12Z" transform="translate(1071.311 334.214)" fill="#efa78b"/>
      <rect id="Rectangle_55" data-name="Rectangle 55" width="7.045" height="76.15" transform="translate(2090.865 771.672)" fill="#6d6e71"/>
      <path id="Path_656" data-name="Path 656" d="M1045.351,462.414H983.69a4.584,4.584,0,0,1,4.583-4.583h52.494A4.584,4.584,0,0,1,1045.351,462.414Z" transform="translate(1079.861 386.874)" fill="#6d6e71"/>
      <rect id="Rectangle_56" data-name="Rectangle 56" width="77.533" height="21.992" rx="6.46" transform="translate(2056.834 754.604)" fill="#414042"/>
      <path id="Path_657" data-name="Path 657" d="M969.31,352.22a61.169,61.169,0,0,0-22.273,9.483,5.862,5.862,0,0,0-2.591,5.6c1.407,11.16,7.2,47.277,26.294,82.55a8.837,8.837,0,0,1,.856,6.084l-3.318,15.439-6.154,5.779h15.849l10.55-28.556-4.513-1.43a8.546,8.546,0,0,1-5.955-7.995l-.527-30.631c.445-13.645-8.37-23.07-8.37-23.07l25.309-1.172Z" transform="translate(1073.094 368.682)" fill="#efa78b"/>
      <path id="Path_658" data-name="Path 658" d="M954.293,466c-1.442,1.887,15.532,4.384,24.113.258,0,0,11.9-20.69,11.9-31.346,0,0-.949-2.169-7.936-1.676,0,0-3.986,24.5-8.206,27.243s-11.793.27-11.793.27S956.426,463.217,954.293,466Z" transform="translate(1074.783 382.624)" fill="#231f20"/>
      <path id="Path_660" data-name="Path 660" d="M1051.171,340s15.626,23.234,16.916,33.831-4.279,14.911-20.679,15.626-60.148.692-60.148.692l-37.36-31.9s27.22-9.706,34.3-12.461S1051.171,340,1051.171,340Z" transform="translate(1074.041 366.577)" fill="#243c55"/>
      <path id="Path_662" data-name="Path 662" d="M980.207,214.409c31.944-5.428,46.972,20.62,45.882,26.094a1,1,0,0,0,1.254,1.172c3.658-.985,11.723-2.227,16.787,4.056,4.431,5.556,1.172,10.8-1.583,13.68a1.008,1.008,0,0,0,.844,1.7c6.74-.844,21.382-1.055,23.785,12.672,2.227,12.789-6.682,16.412-11.957,17.42a1,1,0,0,0-.34,1.829c2.637,1.676,5.7,5.135,4.454,11.945-1.934,10.691-22.882,9.812-25.321,9.671a.985.985,0,0,1-.446-.129l-33.55-19.131a1.02,1.02,0,0,1-.492-.7l-6.776-39.13a1,1,0,0,1,.269-.867l-21.874-30.9C963.2,222.626,979.832,214.479,980.207,214.409Z" transform="translate(1077.331 344.816)" fill="#231f20"/>
      <path id="Path_663" data-name="Path 663" d="M1004.993,349.778s-18.193-17.326-27.149-28.8a24.336,24.336,0,0,1-4.115-21.909c4.079-13.774,11.347-28.04,12.016-30.268,1.008-3.4,21.417-3.259,21.417-3.259s40.138,26.048,55.9,70.183l-17.713,5.51s-10.48-17.584-20.831-28.755c0,0,17.912,23.668,18.545,33.362Z" transform="translate(1077.97 353.751)" fill="#0396fb"/>
      <path id="Path_664" data-name="Path 664" d="M981.72,253.513c.211.7,5.545,18.358,5.955,18.756s11.723.973,16.974-2.649L991.508,243.9Z" transform="translate(1079.522 350.023)" fill="url(#radial-gradient-12)"/>
      <path id="Path_665" data-name="Path 665" d="M963.576,233.718s-2.567,10.1,4.548,23.715,15.239,13.575,19.588,9.226,9.835-11.723,8.546-24.887S967.292,220.847,963.576,233.718Z" transform="translate(1076.319 347.134)" fill="url(#radial-gradient-13)"/>
      <path id="Path_666" data-name="Path 666" d="M988.005,244.337s-11.816-18.053-22.894-3.845l-.2,5.17s-12.965-1.547-10.7-13.434,13.493-19.33,27.923-14.184,22.718,10.445,23.644,20.784-7.3,8.077-7.3,8.077-2.684-7.28-6.494-8.042-2.825,4.923-2.825,4.923Z" transform="translate(1074.738 345.284)" fill="#231f20"/>
      <path id="Path_667" data-name="Path 667" d="M985.964,241.579s-6.131-9.249.152-10.621,5.3,9,4.619,12.895Z" transform="translate(1079.792 347.773)" fill="url(#radial-gradient-14)"/>
      <path id="Path_668" data-name="Path 668" d="M968.63,340.745l13.375-12.895,18.486,7.819s18.4,2.849,28.943,0l10.55-2.86,23.8-7.409,3.739,10.55a6.365,6.365,0,0,1-2.344,7.315,41.684,41.684,0,0,1-6.014,3.739c-3.118,1.372-77.2-.973-77.2-.973Z" transform="translate(1077.267 364.062)" fill="url(#radial-gradient-15)"/>
      <path id="Path_669" data-name="Path 669" d="M1023.811,344.71h-.187l-77.533-.094a3.517,3.517,0,1,1,0-6.94l77.533.094a3.517,3.517,0,0,1,.176,6.928Z" transform="translate(1072.681 366.169)" fill="#231f20"/>
      <path id="Path_671" data-name="Path 671" d="M926.362,312.259c1.395,4.337.363,8.569-2.345,9.378s-5.978-1.969-7.385-6.318-.363-8.569,2.344-9.378S924.955,307.91,926.362,312.259Z" transform="translate(1068.203 360.686)" fill="#231f20"/>
      <path id="Path_672" data-name="Path 672" d="M1092.573,445.484l-4.009,9.835a3.282,3.282,0,0,1-3.364,2.04,18.493,18.493,0,0,1-3.282-.633,4.314,4.314,0,0,1-2.86-5.357l3.024-10.128Z" transform="translate(1096.258 384.016)" fill="url(#radial-gradient-16)"/>
      <path id="Path_673" data-name="Path 673" d="M1159.39,452.951s-1.629,7.186-2.872,11.934a1.524,1.524,0,0,1-1.993,1.032,13.846,13.846,0,0,0-6.014-1.09,1.172,1.172,0,0,1-1.289-1.172l-.152-11.934Z" transform="translate(1108.005 385.821)" fill="url(#radial-gradient-17)"/>
      <path id="Path_674" data-name="Path 674" d="M1128.3,317.6,1079.43,466.715s9.378,6.131,13.844,5.861l58.05-119.828s10.152,73.852,5.228,126.85l16.634,1.266S1200.219,345.41,1179.74,299Z" transform="translate(1096.353 359.515)" fill="#0a2033"/>
      <path id="Path_675" data-name="Path 675" d="M1140.847,346.11h0a.469.469,0,0,0,.41-.527l-1.9-15.052a.473.473,0,1,0-.938.117l1.9,15.052a.469.469,0,0,0,.528.41Z" transform="translate(1106.514 364.875)" fill="url(#linear-gradient-9)"/>
      <path id="Path_676" data-name="Path 676" d="M1120.29,203s39.6,3.517,34,31.721c0,0,21.886,41.193,32.12,89.724a2.86,2.86,0,0,1-2.344,3.388l-65.939,11.289a3.517,3.517,0,0,1-4.032-2.614l-15.72-60.946-6.143,28.31-19.506-5.088,16.412-83.23S1091.429,203.457,1120.29,203Z" transform="translate(1095.197 342.978)" fill="#035afb"/>
      <path id="Path_677" data-name="Path 677" d="M1095.194,266.429h.105a.5.5,0,0,0,.375-.586l-5.533-25.25a.492.492,0,0,0-.961.2l5.5,25.25A.5.5,0,0,0,1095.194,266.429Z" transform="translate(1098.032 349.392)" fill="#91b3fa"/>
      <path id="Path_678" data-name="Path 678" d="M1099.712,333.018a9.378,9.378,0,0,1,6.811-.891l4.6,1.172a1.653,1.653,0,0,0,2.052-1.418l4.689-42.2c5.932,2.813,14.5,2.473,17.326,2.274l-10.925,49.821H1086.02Z" transform="translate(1097.489 357.909)" fill="url(#radial-gradient-18)"/>
      <path id="Path_679" data-name="Path 679" d="M1011,252.672l1.172-3.845a7.572,7.572,0,0,1,4.431-4.853l20.913-8.417s.317-2.673-4.419-4.5-3.622-7.116-3.622-7.116,6.459,2.942,15.931,7.62a22.274,22.274,0,0,1,10.058,10.961l47.371,57.745-5.568,3.822a14.841,14.841,0,0,1-21.523-5.287l-25.661-49.235A95.679,95.679,0,0,1,1011,252.672Z" transform="translate(1084.566 346.585)" fill="url(#radial-gradient-19)"/>
      <path id="Path_680" data-name="Path 680" d="M1104.214,180.06l12.18,34s-10.785,8.429-18.651,5.58l-6.143-19.541S1096.289,176.262,1104.214,180.06Z" transform="translate(1098.449 338.956)" fill="url(#radial-gradient-20)"/>
      <path id="Path_681" data-name="Path 681" d="M1071.35,170.512c0,.527,11.723,33.21,11.723,33.21l18.522-7.034-6.506-32.647S1071.35,161.7,1071.35,170.512Z" transform="translate(1094.961 336.219)" fill="url(#radial-gradient-21)"/>
      <path id="Path_682" data-name="Path 682" d="M1093.2,173.62l4.771,16.9a2.07,2.07,0,0,1,.094.656c0,1.383-.34,6.131-5.17,5.486-4.384-.586-8.393-1.055-10.949.141a2.462,2.462,0,0,0-1.266,3.048,106.24,106.24,0,0,0,6.67,15.063,2.45,2.45,0,0,0,3.153,1.008,79.286,79.286,0,0,0,15.872-9.378,2.462,2.462,0,0,0,.879-2.344c-.82-4.326-3.235-17.478-3.341-21.253-.105-3.517,3.869-6.236,5.615-7.256a2.344,2.344,0,0,0,1.172-1.524c.551-2.274,1.02-7.432-5.556-8.569a2.45,2.45,0,0,1-1.993-2.931c.551-2.72.375-6.729-4.795-8.206s-8.569,1.665-10.257,4.091a2.438,2.438,0,0,1-3.036.809,1.969,1.969,0,0,0-2.18.4,2.426,2.426,0,0,1-3.517-.539,7.315,7.315,0,0,0-9.026-2.989c-8.37,2.708-7.971,12.356-4.9,17.584s11.969,1.794,16.189-1.688c3.2-2.638,8.077-1.055,10.234-.152A2.461,2.461,0,0,1,1093.2,173.62Z" transform="translate(1093.598 334.552)" fill="#58595b"/>
      <path id="Path_683" data-name="Path 683" d="M1099.811,186.056s-4.947-9.378-1.676-12.309,8.827-2.462,8.675,4.865C1106.621,187.72,1099.811,186.056,1099.811,186.056Z" transform="translate(1099.382 337.649)" fill="url(#radial-gradient-22)"/>
      <path id="Path_684" data-name="Path 684" d="M1127.135,302.08a46.279,46.279,0,0,0,4.841-.234h.352l14.419-67.229a.48.48,0,0,0-.375-.574.492.492,0,0,0-.586.375l-14.266,66.526c-2.145.188-13.61.95-19.659-3.341l12.5-58.4-2.614-4.912a.469.469,0,0,0-.656-.2.492.492,0,0,0-.211.656l2.45,4.6-12.555,58.683.258.188C1115.389,301.459,1122.434,302.08,1127.135,302.08Z" transform="translate(1101.752 348.323)" fill="#91b3fa"/>
      <path id="Path_687" data-name="Path 687" d="M1061.371,487.362a2.346,2.346,0,0,1-1-.223,2.837,2.837,0,0,1-1.313-3.6L1111.813,349.9a2.426,2.426,0,0,1,3.294-1.442,2.848,2.848,0,0,1,1.313,3.611l-52.681,133.637A2.521,2.521,0,0,1,1061.371,487.362Z" transform="translate(1092.808 367.998)" fill="#6d6e71"/>
      <path id="Path_688" data-name="Path 688" d="M1119.777,487.362a2.52,2.52,0,0,1-2.344-1.653l-52.681-133.637a2.848,2.848,0,0,1,1.313-3.61,2.427,2.427,0,0,1,3.294,1.442L1122.11,483.54a2.825,2.825,0,0,1-1.313,3.6A2.345,2.345,0,0,1,1119.777,487.362Z" transform="translate(1093.788 367.998)" fill="#6d6e71"/>
      <path id="Path_689" data-name="Path 689" d="M1054.51,342.718h76.314V334.84H1054.51C1056.14,334.84,1056.14,342.718,1054.51,342.718Z" transform="translate(1092.061 365.688)" fill="#231f20"/>
      <path id="Path_690" data-name="Path 690" d="M1130.45,342.979a.715.715,0,0,0,.727-.715v-6.447a.727.727,0,0,0-.727-.715h-77.2a.715.715,0,0,1-.715-.715v-.34a.727.727,0,0,1,.715-.727h82.292a3.294,3.294,0,0,1,3.294,3.306v5.029a3.106,3.106,0,0,1-3.106,3.106h-82.48a.715.715,0,0,1-.715-.715v-.352a.727.727,0,0,1,.715-.715Z" transform="translate(1091.719 365.426)" fill="#231f20"/>
      <path id="Path_692" data-name="Path 692" d="M1162.431,475.792a21.186,21.186,0,0,1-7.034.246,8.013,8.013,0,0,0-2.591,0,3.06,3.06,0,0,0-2.849-1.958,4.688,4.688,0,0,0-3.259,1.465,4.691,4.691,0,0,1-1.43,1.172,3.353,3.353,0,0,1-1.372.164l-16.271-.352a3.728,3.728,0,0,1-3.013-1,3.6,3.6,0,0,1-.481-2.251,6.764,6.764,0,0,1,1.078-4.208c1.172-1.465,3.271-1.489,5.064-2.016s3.435-1.348,5.346-1.946a15.521,15.521,0,0,0,9.577-8.722,3.914,3.914,0,0,1,1.114-1.77,3.259,3.259,0,0,1,2.942,0,27.752,27.752,0,0,1,3.411,1.524c.762.41,1.606,1.043,1.512,1.9-.117,1.114-1.794,1.922-1.3,2.919.293.574,1.09.61,1.723.539a30.483,30.483,0,0,0,9.378-2.555,24.354,24.354,0,0,1,.363,4.314l-.422,9.237a6.342,6.342,0,0,1-1.489,3.294Z" transform="translate(1104.049 386.261)" fill="#1a1d3e"/>
      <path id="Path_693" data-name="Path 693" d="M1093.843,469.855a21.194,21.194,0,0,1-7.033.246,8.087,8.087,0,0,0-2.6,0,3.036,3.036,0,0,0-2.837-1.946,4.619,4.619,0,0,0-3.271,1.453,4.855,4.855,0,0,1-1.418,1.172,3.4,3.4,0,0,1-1.372.152l-16.271-.352a3.7,3.7,0,0,1-3.013-1,3.518,3.518,0,0,1-.492-2.251,6.916,6.916,0,0,1,1.078-4.208c1.172-1.465,3.282-1.489,5.076-2.016s3.435-1.348,5.345-1.946a15.462,15.462,0,0,0,9.577-8.722,3.857,3.857,0,0,1,1.1-1.77,3.247,3.247,0,0,1,2.954,0,26.083,26.083,0,0,1,3.411,1.524c.762.4,1.606,1.043,1.512,1.9-.129,1.1-1.805,1.911-1.3,2.907.281.574,1.078.61,1.723.539A30.314,30.314,0,0,0,1095.39,453a24.161,24.161,0,0,1,.375,4.3l-.434,9.237A6.285,6.285,0,0,1,1093.843,469.855Z" transform="translate(1092.233 385.235)" fill="#1a1d3e"/>
    </g>
  </g>
</svg>
