<svg id="Group_651" data-name="Group 651" xmlns="http://www.w3.org/2000/svg" xmlns:xlink="http://www.w3.org/1999/xlink" width="608" height="535.144" viewBox="0 0 608 535.144">
  <defs>
    <radialGradient id="radial-gradient" cx="0.545" cy="0.636" r="0.694" gradientTransform="matrix(-1.124, 0, 0, 1, 1.189, 0)" gradientUnits="objectBoundingBox">
      <stop offset="0" stop-color="#ffc8af"/>
      <stop offset="1" stop-color="#ffbb9c"/>
    </radialGradient>
    <linearGradient id="linear-gradient" x1="1" y1="0.499" x2="0.001" y2="0.499" gradientUnits="objectBoundingBox">
      <stop offset="0" stop-color="#606bf1"/>
      <stop offset="1" stop-color="#433aff"/>
    </linearGradient>
    <radialGradient id="radial-gradient-2" cx="0.459" cy="0.596" r="0.709" gradientTransform="matrix(-0.444, 0, 0, 1, 0.686, 0)" xlink:href="#radial-gradient"/>
    <radialGradient id="radial-gradient-3" cx="-0.51" cy="0.917" r="1.216" gradientTransform="matrix(-0.861, 0, 0, 1, -0.809, 0)" xlink:href="#radial-gradient"/>
  </defs>
  <path id="Path_539" data-name="Path 539" d="M232,422.57v15.995h25.019V423.187Z" transform="translate(75.464 61.182)" fill="#ffc8af"/>
  <path id="Path_540" data-name="Path 540" d="M289.34,458.212a32.332,32.332,0,0,1-10.746.38,12.169,12.169,0,0,0-3.99-.083,4.679,4.679,0,0,0-4.358-2.992,7.125,7.125,0,0,0-5.023,2.244,7.255,7.255,0,0,1-2.185,1.864,5.082,5.082,0,0,1-2.114.238l-25.019-.463c-1.686,0-3.562-.19-4.631-1.532a5.474,5.474,0,0,1-.748-3.455c0-2.268.238-4.75,1.651-6.483,1.793-2.244,5.035-2.28,7.8-3.076,2.945-.867,5.272-2.09,8.205-2.992a23.844,23.844,0,0,0,14.724-13.406,5.937,5.937,0,0,1,1.7-2.731c1.282-.9,3.052-.487,4.524,0a41.556,41.556,0,0,1,5.249,2.375c1.187.617,2.47,1.6,2.375,2.909-.19,1.71-2.767,2.945-2.007,4.489.451.879,1.674.926,2.66.819a47.165,47.165,0,0,0,14.344-3.919,37.608,37.608,0,0,1,.57,6.614q-.332,7.125-.665,14.19A9.666,9.666,0,0,1,289.34,458.212Z" transform="translate(41.956 61.673)" fill="#1a1d3e"/>
  <rect id="Rectangle_30" data-name="Rectangle 30" width="606.771" height="8.419" transform="translate(0 526.726)" fill="#031efb" opacity="0.35"/>
  <path id="Path_541" data-name="Path 541" d="M72.852,400.84s.986,2.921,2.019,6.578A64.55,64.55,0,0,1,77.246,418.5l-1.757.131a62.542,62.542,0,0,0-2.3-10.687c-.511-1.8-1.009-3.432-1.377-4.607s-.617-1.876-.617-1.888l1.662-.558Z" transform="translate(446.19 57.109)" fill="#112b46"/>
  <path id="Path_542" data-name="Path 542" d="M64.016,402.094a5.3,5.3,0,0,1-.095.831c-.154,1.615-.475,5.367-.475,9.44a57.505,57.505,0,0,0,.261,5.747l-1.746.178c-.19-1.936-.261-3.978-.261-5.937a102.689,102.689,0,0,1,.57-10.473l1.746.2Z" transform="translate(470.69 57.304)" fill="#112b46"/>
  <path id="Path_543" data-name="Path 543" d="M57.459,412h0a6.777,6.777,0,0,0-.748,1.093,4.524,4.524,0,0,0-.617,2.1H54.36a6.329,6.329,0,0,1,.926-3.1,8.012,8.012,0,0,1,.914-1.282L57.495,412Z" transform="translate(485.926 58.978)" fill="#112b46"/>
  <path id="Path_544" data-name="Path 544" d="M119.178,412.138s8.977-11.388-4.821-35.03S72.1,347.766,70.79,350.83s14.451,8.977,18.857,27.157,4.928,28.237,10.4,33.747S112.967,419.369,119.178,412.138Z" transform="translate(401.955 47.592)" fill="#0378fb"/>
  <path id="Path_545" data-name="Path 545" d="M-.016,407.741s.986-12.8,24.164-19.925,45.147,6.246,44.2,9.036-14.8-2.826-28.5,6.377-20.187,15.437-27.038,15.71S-.3,416.172-.016,407.741Z" transform="translate(539.625 54.28)" fill="#0378fb"/>
  <path id="Path_546" data-name="Path 546" d="M23.853,408.157s-15.437-16.624,2.47-43.175S83.795,336.566,85.1,340.223,69.664,350.91,63.11,371.75s-10.07,31.408-16.885,37.345S30.55,417.075,23.853,408.157Z" transform="translate(501.816 45.482)" fill="#0378fb"/>
  <path id="Path_547" data-name="Path 547" d="M103.765,407.248a.736.736,0,0,0,.226,0,.879.879,0,0,0,.617-1.081c-.4-1.449-10.022-35.623-27.81-48.6a.867.867,0,0,0-1.187.178.891.891,0,0,0,.19,1.187c17.254,12.694,27.014,47.331,27.121,47.676a.867.867,0,0,0,.843.641Z" transform="translate(413.722 48.967)" fill="#e6e7e8"/>
  <path id="Path_548" data-name="Path 548" d="M28.606,405.772a.962.962,0,0,0,.879-.653,4.311,4.311,0,0,0,.095-.95c.807-12.005,5.937-51.82,38-60.227a.879.879,0,0,0,.629-1.069.891.891,0,0,0-1.069-.629c-33.248,8.7-38.532,49.516-39.352,61.806v.641a.819.819,0,0,0,.57,1.045A.9.9,0,0,0,28.606,405.772Z" transform="translate(506.788 46.121)" fill="#e6e7e8"/>
  <g id="Group_650" data-name="Group 650" transform="translate(545.302 446.133)">
    <path id="Path_549" data-name="Path 549" d="M15.552,412.6c.4,0,.8-.356,2.066-1.508,14.416-13.062,28.3-19.213,41.287-18.37a.879.879,0,1,0,.119-1.745c-13.489-.9-27.81,5.45-42.582,18.821-.511.463-1.033.938-1.247,1.092a.914.914,0,0,0-.522.546.879.879,0,0,0,.558,1.1A1.079,1.079,0,0,0,15.552,412.6Z" transform="translate(-14.63 -390.889)" fill="#e6e7e8"/>
  </g>
  <path id="Path_550" data-name="Path 550" d="M46.439,467.5H91.562a2.446,2.446,0,0,0,2.375-1.888l11.874-51.06H32.19l11.874,51.06a2.458,2.458,0,0,0,2.375,1.888Z" transform="translate(463.935 59.679)" fill="#c0ecf7"/>
  <path id="Path_551" data-name="Path 551" d="M102.32,429.377h-66.7L32.19,414.51h73.574Z" transform="translate(463.983 59.671)" fill="#7aabbc"/>
  <path id="Path_552" data-name="Path 552" d="M105.063,417.526H32.879l-.689-3.016h73.574Z" transform="translate(463.983 59.671)" fill="#bee1f4"/>
  <rect id="Rectangle_31" data-name="Rectangle 31" width="206.389" height="112.368" rx="4.93" transform="translate(134.513 56.807)" fill="#0a2033"/>
  <path id="Path_553" data-name="Path 553" d="M228.94,68.485a2.173,2.173,0,1,0,.632-1.544,2.173,2.173,0,0,0-.632,1.544Z" transform="translate(102.831 -5.598)" fill="#f9fbfc"/>
  <path id="Path_554" data-name="Path 554" d="M236.59,68.485a2.185,2.185,0,1,0,2.185-2.185A2.185,2.185,0,0,0,236.59,68.485Z" transform="translate(86.074 -5.598)" fill="#fbd15b"/>
  <path id="Path_555" data-name="Path 555" d="M243.7,68.673a2.185,2.185,0,1,0,2.185-2.173,2.185,2.185,0,0,0-2.185,2.173Z" transform="translate(70.521 -5.56)" fill="#ff8578"/>
  <rect id="Rectangle_32" data-name="Rectangle 32" width="113.555" height="1.437" transform="translate(205.938 79.737)" fill="#d3d3d3"/>
  <rect id="Rectangle_33" data-name="Rectangle 33" width="161.207" height="1.437" transform="translate(153.014 87.455)" fill="#d3d3d3"/>
  <rect id="Rectangle_34" data-name="Rectangle 34" width="124.515" height="1.437" transform="translate(180.539 95.185)" fill="#d3d3d3"/>
  <rect id="Rectangle_35" data-name="Rectangle 35" width="130.025" height="1.437" transform="translate(166.004 102.904)" fill="#d3d3d3"/>
  <rect id="Rectangle_36" data-name="Rectangle 36" width="87.823" height="1.437" transform="translate(195.975 110.622)" fill="#d3d3d3"/>
  <rect id="Rectangle_37" data-name="Rectangle 37" width="51.143" height="1.437" transform="translate(268.35 150.675)" fill="#d3d3d3"/>
  <rect id="Rectangle_38" data-name="Rectangle 38" width="124.515" height="1.437" transform="translate(189.706 142.956)" fill="#d3d3d3"/>
  <rect id="Rectangle_39" data-name="Rectangle 39" width="161.207" height="1.437" transform="translate(143.847 135.238)" fill="#d3d3d3"/>
  <rect id="Rectangle_40" data-name="Rectangle 40" width="87.823" height="1.437" transform="translate(208.206 127.519)" fill="#d3d3d3"/>
  <rect id="Rectangle_41" data-name="Rectangle 41" width="106.169" height="1.437" transform="translate(177.629 119.789)" fill="#d3d3d3"/>
  <rect id="Rectangle_42" data-name="Rectangle 42" width="1.829" height="1.829" transform="translate(328.826 78.359)" fill="#f9fbfc"/>
  <path id="Path_556" data-name="Path 556" d="M233.54,147.309h1.829v-3.74H233.54Zm0-9.357h1.829v-3.74H233.54Zm0-9.345h1.829v-3.693H233.54Zm0-9.357h1.829v-3.74H233.54Zm0-9.357h1.829v-3.74H233.54Zm0-9.357h1.829V96.8H233.54Zm0-9.345h1.829V87.45H233.54Z" transform="translate(95.286 -1.634)" fill="#f9fbfc"/>
  <rect id="Rectangle_43" data-name="Rectangle 43" width="1.829" height="1.829" transform="translate(328.826 151.292)" fill="#f9fbfc"/>
  <path id="Path_557" data-name="Path 557" d="M311.794,278.412h94.33a2.814,2.814,0,0,0,2.814-2.8h0a2.8,2.8,0,0,0-2.814-2.8H315.119a2.814,2.814,0,0,1-2.47-1.461L268.833,191.23a2.8,2.8,0,0,0-3.8-1.116h0a2.8,2.8,0,0,0-1.116,3.812L309.324,276.9A2.814,2.814,0,0,0,311.794,278.412Z" transform="translate(-113.943 17.546)" fill="#1d262d"/>
  <path id="Path_558" data-name="Path 558" d="M161.489,119.328a47.6,47.6,0,0,0,6.614,16.85c5.26,8.134,17.135,20.08,20.412,21.1,1.318.4,6.032-1.734,11.162-4.417,1.686-.879,3.408-1.829,5.094-2.755,5.937-3.277,11.126-6.448,11.126-6.448l7.837-11.055A90.435,90.435,0,0,0,206.1,93.145c-8.7-11.4-28.166-4.548-35.243.926S159.945,108.107,161.489,119.328Z" transform="translate(192.879 -1.724)" fill="url(#radial-gradient)"/>
  <path id="Path_559" data-name="Path 559" d="M179.352,115.35c.237,7.125-4.489,9.856-5.438,11.079s5.4,7.825,8.241,4.857S179.352,115.35,179.352,115.35Z" transform="translate(218.619 3.596)" fill="#efa78b"/>
  <path id="Path_560" data-name="Path 560" d="M308.793,419.08l-3.5,16.862,23.143,3.978,5.332-19.3Z" transform="translate(-88.309 60.528)" fill="#ffc8af"/>
  <path id="Path_561" data-name="Path 561" d="M249.12,338.192c15.045.76,35.125,1.829,61.367,2.838,73.384,2.8,58.434-68.266,58.434-68.266l-70.142-.926S194.5,270.294,172.53,284.33s-54,162.05-54,162.05l34.97,9.713s28.3-60.845,44.826-93.25c6.792-13.323,11.7-23.12,12.124-24.176C211.3,336.316,222.046,336.791,249.12,338.192Z" transform="translate(97.055 32.919)" fill="#243c55"/>
  <path id="Path_562" data-name="Path 562" d="M120.58,271.81h2.232l70.142.926s8.383,39.862-18.239,58.7c-26.492-6.4-42.285-33.248-56.19-57.413Z" transform="translate(273.021 32.923)" fill="#0a2033"/>
  <path id="Path_563" data-name="Path 563" d="M220.47,352.581l5.807,87.811,6.317.142v-3.645h25.019v4.263l6.911.166,6.78-113.424c-27.074-1.4-37.82-1.876-38.711.511C232.166,329.426,227.262,339.258,220.47,352.581Z" transform="translate(74.871 43.217)" fill="#0a2033"/>
  <path id="Path_564" data-name="Path 564" d="M232,419.5v3.645l25.019.617V419.5Z" transform="translate(75.464 60.607)" fill="#0a2033"/>
  <path id="Path_565" data-name="Path 565" d="M172.62,265.059H214s62.424-10.07,74.571-17.527c4.512-2.779,12.254-11.281,20.258-20.875l-28.2-23.488c-4.94,7.825-9.428,14.249-11.221,14.9-4.9,1.852-51.428,27.8-56.807,27.8S181.514,245.419,172.62,265.059Z" transform="translate(94.163 20.057)" fill="#efa78b"/>
  <path id="Path_566" data-name="Path 566" d="M149.11,208.611l30.137,24.129c13.632-16.363,27.917-35.944,27.917-35.944L164.416,171.04S153.515,197.033,149.11,208.611Z" transform="translate(223.747 14.035)" fill="url(#linear-gradient)"/>
  <path id="Path_567" data-name="Path 567" d="M132.633,154.808l30.873-12.148s36.811,4.275,39.34,92.953c.487,17.123.321,111.726-4.892,114.161-20.8,9.678-74.346-53.779-74.346-53.779-1.069-1.971.451-22.419,0-24.438a23.745,23.745,0,0,0,3.182-1.437c5.474-3.23,15.686-16.779,25.732-31.432l-31.764-24.734c-1.259,1.983-2.517,3.919-3.729,5.807C116.187,172.429,132.633,154.808,132.633,154.808Z" transform="translate(266.015 8.715)" fill="#033cfb"/>
  <path id="Path_568" data-name="Path 568" d="M135.987,264.861a23.757,23.757,0,0,0,3.194-1.437c5.474-3.23,15.686-16.779,25.732-31.432l-15.591-12.136,15.591-23.12L193,178.38v12.611s-12.029,32.726-26.337,58.387c-7.778,13.929-20.638,20.768-30.778,24.117A78.3,78.3,0,0,0,135.987,264.861Z" transform="translate(253.625 15.411)" fill="#3030ef"/>
  <path id="Path_569" data-name="Path 569" d="M199.984,255.313s65.238-26.658,69.667-27.62c1.4-.309,6.2-6.923,12.112-15.864,1.187-1.924,4.75-7.208,5.937-9.179l31.764,24.734c-10.046,14.689-20.246,28.237-25.72,31.491a23.757,23.757,0,0,1-3.194,1.461v-.012c-19,7.125-87.206,10.378-88.536,10.818-2.446,1.9-8.205,2.019-13.394.594a19.581,19.581,0,0,1-6.436-2.969c-4.56-3.42-11.376,1.4-14.451,3.729-2.007,1.508-6.65,1.461-8.193-.083C163.031,252.748,199.984,255.313,199.984,255.313Z" transform="translate(99.061 19.96)" fill="url(#radial-gradient-2)"/>
  <path id="Path_570" data-name="Path 570" d="M150.29,143.782l.914,1.876,1.995,4.014.356.736,3.764,7.635L188.193,145.9l-12.931-20.5L154.8,140.457Z" transform="translate(241.316 5.48)" fill="url(#radial-gradient-3)"/>
  <path id="Path_571" data-name="Path 571" d="M202.01,196.232l-32.2,49.445L133,224.565s10.022-38.533,19.735-59.728c6.044-13.169,23.428-19.7,40.242-9.226C207.805,164.836,207.4,186.388,202.01,196.232Z" transform="translate(244.61 10.169)" fill="#033cfb"/>
  <path id="Path_572" data-name="Path 572" d="M212.777,120.19c1.187-5.367,6.092-10.307,10.509-3.123A14.083,14.083,0,0,1,224.972,123c.784,7.469,9.5,10.758,15.995,11.257a12.49,12.49,0,0,0,3.123-.107s-1.639-12.314-5.284-27.133S226.931,77.074,214.95,83.142c0,0-10.984-5.13-17.669,3.372,0,0-11.34-4.061-17.218,5.059,0,0-15.935,3.016-18.9,12.907-3.788,12.575,13.822,15.627,19.7,12.076s10.307-10.319,14.368-10.2,3.135,6.353,3.74,10.2,6.567-.119,9.108,5.047,3.788,8.063,5.308,7.125S212.777,120.19,212.777,120.19Z" transform="translate(173.142 -2.729)" fill="#3a3a3a"/>
  <path id="Path_573" data-name="Path 573" d="M180.42,115.951c-.451-1.936.748-4.667,2.434-4.75,2.161-.154,3.159,2.494,3.313,4.75.142,2.126-.5,5.807-2.85,5-1.8-.606.2-2.779-.439-3.954S180.42,118.088,180.42,115.951Z" transform="translate(207.66 2.817)" fill="#efa78b"/>
  <path id="Path_574" data-name="Path 574" d="M174.52,143.667l1.995,4.014a14.665,14.665,0,0,0,6.222-11.661S180.861,140.022,174.52,143.667Z" transform="translate(218.001 7.47)" fill="#efa78b"/>
  <path id="Path_575" data-name="Path 575" d="M118.689,202.831v.974c-.071.558-.214,1.544-.439,3.052-1.674,11.186-7.671,49.54-13.252,85.152s-10.687,68.4-10.687,68.4L83.22,358.659l1.045-6.673c2.375-14.867,8.193-52.069,13.454-85.7,2.624-16.814,5.106-32.738,6.935-44.541.914-5.937,1.662-10.758,2.185-14.178.261-1.71.463-3.064.594-3.99.071-.463.119-.819.154-1.045v-.214h0l3.313.368-3.325-.273v-.1l3.313.368-3.325-.273,5.189.427h-5.2v-.427l5.189.427h5.949Z" transform="translate(390.462 19.898)" fill="#414042"/>
  <path id="Path_576" data-name="Path 576" d="M1.936,132.744h9.725a1.936,1.936,0,0,0,1.936-1.936V0H0V130.809a1.936,1.936,0,0,0,1.936,1.935Z" transform="translate(396.416 395.501)" fill="#414042"/>
  <path id="Path_577" data-name="Path 577" d="M1.936,32.572h9.725A1.936,1.936,0,0,0,13.6,30.636V0H0V30.636a1.936,1.936,0,0,0,1.936,1.936Z" transform="translate(396.416 495.674)" fill="#414042"/>
  <path id="Path_578" data-name="Path 578" d="M7.493,11.34H67.174A7.528,7.528,0,0,0,74.7,3.812V0H0V3.812A7.528,7.528,0,0,0,7.493,11.34Z" transform="translate(365.875 397.318)" fill="#414042"/>
  <rect id="Rectangle_44" data-name="Rectangle 44" width="165.601" height="26.468" rx="7.4" transform="translate(320.407 371.194)" fill="#808285"/>
  <path id="Path_579" data-name="Path 579" d="M128.962,454.6a7.956,7.956,0,1,1-7.956-7.956A7.956,7.956,0,0,1,128.962,454.6Z" transform="translate(344.768 65.694)" fill="#414042"/>
  <circle id="Ellipse_1" data-name="Ellipse 1" cx="7.956" cy="7.956" r="7.956" transform="translate(332.686 512.334)" fill="#414042"/>
  <rect id="Rectangle_45" data-name="Rectangle 45" width="27.335" height="23.891" transform="translate(389.54 485.509)" fill="#414042"/>
  <path id="Path_580" data-name="Path 580" d="M0,11.245H141.044V6.828A6.828,6.828,0,0,0,134.217,0H6.828A6.828,6.828,0,0,0,0,6.828Z" transform="translate(332.686 503.772)" fill="#414042"/>
  <path id="Path_581" data-name="Path 581" d="M109.216,212.653l-5.937,44.387a11.556,11.556,0,0,1-22.906-3.087l5.937-44.387a11.566,11.566,0,1,1,22.918,3.087" transform="translate(403.284 19.326)" fill="#808285"/>
  <rect id="Rectangle_46" data-name="Rectangle 46" width="12.159" height="217.551" transform="translate(105.754 309.174)" fill="#58595b"/>
  <rect id="Rectangle_47" data-name="Rectangle 47" width="12.159" height="217.551" transform="translate(288.905 309.174)" fill="#58595b"/>
  <rect id="Rectangle_48" data-name="Rectangle 48" width="216.613" height="15.187" rx="6.4" transform="translate(93.57 295.614)" fill="#414042"/>
  <rect id="Rectangle_49" data-name="Rectangle 49" width="62.626" height="38.604" transform="translate(314.316)" fill="#0376f6"/>
  <path id="Path_582" data-name="Path 582" d="M204.407,40.9a1.377,1.377,0,0,0,.641-.178,7.3,7.3,0,0,0,.712-.392l8.811-5.177a1.294,1.294,0,0,0,.487-.558,1.437,1.437,0,0,0,.166-.689,1.5,1.5,0,0,0-.166-.712,1.188,1.188,0,0,0-.487-.534l-8.811-5.07a4.464,4.464,0,0,0-.665-.344,1.816,1.816,0,0,0-.582-.119,1.389,1.389,0,0,0-1.021.534,1.627,1.627,0,0,0-.463,1.092,1.113,1.113,0,0,0,.594.974l9.4,5.45.19-2.707L203.647,38.2a1.187,1.187,0,0,0-.463.475,1.437,1.437,0,0,0-.131.582,1.662,1.662,0,0,0,.439,1.187A1.282,1.282,0,0,0,204.407,40.9Z" transform="translate(151.659 -12.94)" fill="#fff"/>
  <path id="Path_583" data-name="Path 583" d="M227.488,45.8a1.5,1.5,0,0,0,.95-.38,1.187,1.187,0,0,0,.5-.974,1.52,1.52,0,0,0-.166-.653L217.763,21.229a1.532,1.532,0,0,0-.522-.606,1.188,1.188,0,0,0-.677-.214,1.52,1.52,0,0,0-.938.368,1.187,1.187,0,0,0-.475.986,1.437,1.437,0,0,0,.166.653L226.3,44.978a1.65,1.65,0,0,0,.5.594A1.188,1.188,0,0,0,227.488,45.8Z" transform="translate(123.555 -14.2)" fill="#fff"/>
  <path id="Path_584" data-name="Path 584" d="M239.27,40.9a1.389,1.389,0,0,0,1.021-.522,1.639,1.639,0,0,0,.475-1.1.938.938,0,0,0-.154-.534,1.413,1.413,0,0,0-.439-.439l-9.428-5.391-.19,2.707,9.571-5.712a1.045,1.045,0,0,0,.463-.475,1.318,1.318,0,0,0,.143-.594,1.674,1.674,0,0,0-.463-1.187,1.282,1.282,0,0,0-.9-.5,1.377,1.377,0,0,0-.629.178l-.724.392-8.8,5.189a1.187,1.187,0,0,0-.487.534,1.639,1.639,0,0,0,0,1.437,1.187,1.187,0,0,0,.487.522l8.811,5.082.653.321a1.378,1.378,0,0,0,.594.1Z" transform="translate(95.802 -12.936)" fill="#fff"/>
  <rect id="Rectangle_50" data-name="Rectangle 50" width="70.665" height="47.26" transform="translate(420.687 45.752)" fill="#0378fb"/>
  <path id="Path_585" data-name="Path 585" d="M142.21,65.824a11.6,11.6,0,0,1-15.555,16.862l-7.422,7.41a.784.784,0,0,1-1.128,0l-2.09-2.078a.808.808,0,0,1,0-1.187l7.422-7.422A11.6,11.6,0,0,1,142.21,65.824ZM127.32,78.886a17980.642,17980.642,0,1,0,0-.047Z" transform="translate(325.76 -6.499)" fill="#f9fbfc"/>
  <rect id="Rectangle_51" data-name="Rectangle 51" width="54.242" height="38.639" transform="translate(98.166 33.925)" fill="#0376f6"/>
  <path id="Path_586" data-name="Path 586" d="M395.346,70.059h.261a5.4,5.4,0,0,0,1.947-.712,2.47,2.47,0,0,0,.938-1.116,3.657,3.657,0,0,0,.273-1.472V65a2.483,2.483,0,0,1,.2-1.069,1.33,1.33,0,0,1,.546-.617,1.686,1.686,0,0,1,.8-.214h.059a.772.772,0,0,0,.57-.226.736.736,0,0,0,.226-.57.772.772,0,0,0-.226-.57.819.819,0,0,0-.57-.226h-.095a1.781,1.781,0,0,1-.772-.226,1.378,1.378,0,0,1-.534-.617,2.47,2.47,0,0,1-.2-1.057V57.852a4.255,4.255,0,0,0-.143-1.187,2.471,2.471,0,0,0-.5-.938,2.756,2.756,0,0,0-.914-.641,6.223,6.223,0,0,0-1.567-.511.784.784,0,0,0-.724.166.819.819,0,0,0-.249.594.617.617,0,0,0,.166.416.973.973,0,0,0,.427.285,3.194,3.194,0,0,1,1.033.522,1.365,1.365,0,0,1,.463.677,3.564,3.564,0,0,1,.107.938v1.793a2.3,2.3,0,0,0,.5,1.567,3.1,3.1,0,0,0,1.366.831V62.21a3.111,3.111,0,0,0-1.366.843,2.244,2.244,0,0,0-.5,1.556v1.8a3.455,3.455,0,0,1-.107.914,1.388,1.388,0,0,1-.463.665,4.024,4.024,0,0,1-1.033.558.772.772,0,0,0-.594.724.736.736,0,0,0,.214.522A.7.7,0,0,0,395.346,70.059Z" transform="translate(-261.842 -7.801)" fill="#fff"/>
  <path id="Path_587" data-name="Path 587" d="M418.675,70.045a.558.558,0,0,0,.5-.285.949.949,0,0,0,.166-.511.606.606,0,0,0-.154-.416.95.95,0,0,0-.427-.273,3.384,3.384,0,0,1-1.045-.523,1.4,1.4,0,0,1-.451-.689,3.564,3.564,0,0,1-.107-.926V64.631a2.268,2.268,0,0,0-.511-1.579,3.229,3.229,0,0,0-1.354-.831v.071a3.254,3.254,0,0,0,1.354-.843,2.256,2.256,0,0,0,.511-1.556V58.1a3.419,3.419,0,0,1,.107-.926,1.449,1.449,0,0,1,.463-.665,3.42,3.42,0,0,1,1.033-.546.76.76,0,0,0,.582-.724.725.725,0,0,0-.2-.522.653.653,0,0,0-.5-.226h-.261a5.4,5.4,0,0,0-1.947.712,2.494,2.494,0,0,0-.938,1.128,3.563,3.563,0,0,0-.273,1.461V59.56a2.565,2.565,0,0,1-.2,1.069,1.366,1.366,0,0,1-.546.606,1.627,1.627,0,0,1-.8.214h-.059a.82.82,0,0,0-.57.226.772.772,0,0,0-.226.57.736.736,0,0,0,.226.57.772.772,0,0,0,.57.226h.095a1.626,1.626,0,0,1,.772.226,1.437,1.437,0,0,1,.534.617,2.375,2.375,0,0,1,.2,1.057v1.769a4.382,4.382,0,0,0,.143,1.128,2.22,2.22,0,0,0,.487.938,3.1,3.1,0,0,0,.962.724,5.8,5.8,0,0,0,1.567.5h.131Z" transform="translate(-301.569 -7.812)" fill="#fff"/>
  <path id="Path_588" data-name="Path 588" d="M365.218,456.963a32.333,32.333,0,0,1-10.746.38,12.169,12.169,0,0,0-3.99-.071,4.679,4.679,0,0,0-4.358-3,7.125,7.125,0,0,0-5.023,2.244,7.124,7.124,0,0,1-2.185,1.864,5.284,5.284,0,0,1-2.114.249l-25-.546c-1.686,0-3.562-.19-4.631-1.532a5.438,5.438,0,0,1-.748-3.455c0-2.268.238-4.75,1.651-6.472,1.793-2.256,5.035-2.28,7.8-3.087,2.945-.855,5.272-2.078,8.205-2.992a23.844,23.844,0,0,0,14.724-13.406,5.938,5.938,0,0,1,1.7-2.731c1.282-.9,3.052-.487,4.524.059a39.922,39.922,0,0,1,5.249,2.375c1.187.617,2.47,1.6,2.375,2.921-.19,1.7-2.767,2.945-2.007,4.477.451.879,1.674.938,2.66.831a46.845,46.845,0,0,0,14.3-3.919,37.638,37.638,0,0,1,.57,6.626q-.333,7.125-.665,14.19a9.678,9.678,0,0,1-2.292,5Z" transform="translate(-124.025 61.427)" fill="#1a1d3e"/>
</svg>
