<svg id="Layer_2" data-name="Layer 2" xmlns="http://www.w3.org/2000/svg" xmlns:xlink="http://www.w3.org/1999/xlink" width="670.333" height="442.743" viewBox="0 0 670.333 442.743">
  <defs>
    <radialGradient id="radial-gradient" cx="0.5" cy="0.5" r="0.514" gradientTransform="translate(0.027) scale(0.945 1)" gradientUnits="objectBoundingBox">
      <stop offset="0" stop-color="#ffc8af"/>
      <stop offset="1" stop-color="#ffbb9c"/>
    </radialGradient>
    <radialGradient id="radial-gradient-2" cx="0.5" cy="0.5" r="0.514" xlink:href="#radial-gradient"/>
    <radialGradient id="radial-gradient-3" cx="0.5" cy="0.5" r="0.473" gradientTransform="translate(-0.061) scale(1.123 1)" xlink:href="#radial-gradient"/>
    <radialGradient id="radial-gradient-4" cx="0.501" cy="0.499" r="0.46" gradientTransform="translate(-0.102) scale(1.203 1)" xlink:href="#radial-gradient"/>
    <radialGradient id="radial-gradient-5" cx="0.5" cy="0.498" r="1.076" gradientTransform="translate(0.326) scale(0.348 1)" xlink:href="#radial-gradient"/>
    <radialGradient id="radial-gradient-6" cx="0.501" cy="0.5" r="1.357" gradientTransform="translate(0.365) scale(0.27 1)" xlink:href="#radial-gradient"/>
    <radialGradient id="radial-gradient-7" cx="0.5" cy="0.5" r="0.664" gradientTransform="translate(0.186) scale(0.628 1)" xlink:href="#radial-gradient"/>
    <radialGradient id="radial-gradient-8" cx="0.501" cy="0.5" r="0.439" gradientTransform="translate(-0.179) scale(1.358 1)" xlink:href="#radial-gradient"/>
    <radialGradient id="radial-gradient-9" cx="0.499" cy="0.5" r="0.46" gradientTransform="translate(-0.102) scale(1.203 1)" xlink:href="#radial-gradient"/>
  </defs>
  <g id="Designed_By_Freepik" data-name="Designed By Freepik">
    <path id="Path_1667" data-name="Path 1667" d="M221.294,124.914a.682.682,0,0,1-.394-.6v-2.624a.656.656,0,0,1,.7-.617c.892,0,.59.918.59,3.293a.63.63,0,0,1-.656.643A.6.6,0,0,1,221.294,124.914Z" transform="translate(68.884 37.753)" fill="#91b3fa"/>
    <path id="Path_1668" data-name="Path 1668" d="M221.581,127.9c.276-1.653.63-3.332,1.036-4.959a.669.669,0,0,1,.813-.472c.971.262.289.774-.538,5.68a.669.669,0,0,1-1.312-.249Zm3.568-12.8c.63-1.574,1.312-3.148,2.046-4.631a.669.669,0,1,1,1.207.577c-.722,1.482-1.4,3-2.007,4.552a.671.671,0,0,1-1.246-.5Zm6.139-11.806c.931-1.4,1.928-2.794,2.965-4.119a.669.669,0,1,1,1.063.813c-1.023,1.312-1.994,2.624-2.912,4.04a.669.669,0,0,1-1.089-.708Zm8.474-9.34a.656.656,0,0,1,0-.931c1.207-1.181,2.479-2.322,3.778-3.411.669-.551,1.535.459.866,1.01-1.312,1.063-2.519,2.191-3.7,3.345a.682.682,0,0,1-.945.013Zm10.272-8.3a.643.643,0,0,1,.184-.905c1.43-.918,2.912-1.784,4.408-2.624a.67.67,0,0,1,.656,1.168c-1.469.774-2.925,1.627-4.329,2.519A.669.669,0,0,1,250.035,85.644Zm12.148-5.706a.748.748,0,0,1-.354-.367.643.643,0,0,1,.38-.84c1.587-.6,3.227-1.154,4.854-1.64a.682.682,0,0,1,.84.446.63.63,0,0,1-.433.813c-1.6.472-3.2,1.01-4.762,1.6a.722.722,0,0,1-.525,0Zm12.869-3.476a.682.682,0,0,1-.38-.485.656.656,0,0,1,.538-.761c1.692-.262,3.411-.472,5.116-.617a.682.682,0,0,1,.735.6.656.656,0,0,1-.6.708c-1.666.131-3.358.341-5.011.6a.669.669,0,0,1-.393-.052Zm12.974-1.312a.656.656,0,0,1,.682-.63c1.719.079,3.45.223,5.156.433a.659.659,0,1,1-.131,1.312c-1.679-.2-3.371-.341-5.051-.42a.669.669,0,0,1-.656-.7ZM329.7,92.361c-3.778-3.332-4.67-3.345-4.067-4.132a.7.7,0,0,1,.931-.118c1.312,1.036,2.729,2.138,4.014,3.28a.656.656,0,1,1-.879.971ZM301.341,76.934a.656.656,0,0,1,.813-.472c1.666.42,3.332.918,4.972,1.456a.687.687,0,1,1-.407,1.312c-1.6-.538-3.24-1.01-4.88-1.43a.656.656,0,0,1-.5-.866Zm17.526,7.674c-4.355-2.492-5.247-2.335-4.828-3.24a.708.708,0,0,1,.892-.3c1.548.748,3.1,1.561,4.591,2.414a.656.656,0,1,1-.656,1.128Z" transform="translate(69.094 23.238)" fill="#91b3fa"/>
    <path id="Path_1669" data-name="Path 1669" d="M310.185,94.856c-1.4-1.745-2.322-2.361-1.64-2.938a.682.682,0,0,1,.945.066c1.535,1.745,2.309,2.453,1.64,2.978a.748.748,0,0,1-.945-.1Z" transform="translate(96.142 28.613)" fill="#91b3fa"/>
    <path id="Path_1670" data-name="Path 1670" d="M320.845,132.377a.656.656,0,0,1-.394-.682c.1-.866.2-1.732.275-2.624a.643.643,0,0,1,.721-.59.682.682,0,0,1,.6.721q-.092,1.312-.275,2.624a.643.643,0,0,1-.735.551.432.432,0,0,1-.2,0Z" transform="translate(99.925 40.063)" fill="#91b3fa"/>
    <path id="Path_1671" data-name="Path 1671" d="M253.3,178.333c-1.666-.813-3.319-1.718-4.906-2.624a.669.669,0,0,1-.236-.905c.538-.866.853,0,5.72,2.414a.656.656,0,0,1,.315.879.682.682,0,0,1-.892.236Zm7.95,2.624c.315-.958.853-.171,6.087,1.141a.656.656,0,0,1,.485.8.643.643,0,0,1-.8.472c-1.784-.446-3.581-.971-5.352-1.574a.656.656,0,0,1-.42-.826Zm-20.294-10.495c-1.443-1.154-2.86-2.388-4.2-3.66a.656.656,0,0,1,0-.931c.708-.735.826.184,5.051,3.581a.656.656,0,0,1,.118.918.669.669,0,0,1-.971.1Zm34.777,14.43a.656.656,0,0,1,.328-1.246c1.81.21,3.634.328,5.444.38a.669.669,0,0,1,.656.682.643.643,0,0,1-.669.63,49.079,49.079,0,0,1-5.549-.38.5.5,0,0,1-.21-.026Zm14.43,0a.682.682,0,0,1-.394-.525.63.63,0,0,1,.577-.722c1.8-.2,3.594-.472,5.365-.813a.682.682,0,0,1,.8.525.63.63,0,0,1-.512.761c-1.81.354-3.66.63-5.483.826a.774.774,0,0,1-.367.026Zm14.01-3.1a.617.617,0,0,1-.341-.38.643.643,0,0,1,.394-.84c1.705-.564,3.4-1.22,5.051-1.942a.682.682,0,0,1,.879.341.643.643,0,0,1-.328.866c-1.679.735-3.411,1.391-5.142,1.981a.63.63,0,0,1-.525.052Zm12.961-6.034a.669.669,0,0,1-.289-.249.656.656,0,0,1,.2-.905c1.535-.931,3.043-1.942,4.486-2.991a.669.669,0,0,1,.931.144.656.656,0,0,1-.131.918c-1.469,1.076-3,2.1-4.565,3.043a.669.669,0,0,1-.6.118Zm11.059-8.842c-.735-.735.2-.8,3.686-4.828a.669.669,0,0,1,1.01.866,50.8,50.8,0,0,1-3.752,3.935.682.682,0,0,1-.958.1Zm9.183-10.875c-.879-.551,0-.813,2.492-5.523a.669.669,0,0,1,1.181.63c-.84,1.6-1.771,3.188-2.755,4.709a.669.669,0,0,1-1,.262Zm6.375-12.633a.656.656,0,0,1-.354-.826c.6-1.679,1.154-3.385,1.614-5.1a.669.669,0,0,1,1.286.367c-.472,1.745-1.023,3.489-1.64,5.247a.682.682,0,0,1-.853.394Z" transform="translate(73.768 42.724)" fill="#91b3fa"/>
    <path id="Path_1672" data-name="Path 1672" d="M232.42,155.386c-1.456-1.81-2.2-2.545-1.5-3.043s1.049.38,2.532,2.243a.643.643,0,0,1-.1.918.669.669,0,0,1-.931-.118Z" transform="translate(71.925 47.462)" fill="#91b3fa"/>
    <path id="Path_1673" data-name="Path 1673" d="M334.574,101.007a6.69,6.69,0,1,1,6.231,7.11h0a6.677,6.677,0,0,1-6.231-7.11ZM340.87,107.12Zm-4.316-5.982a4.683,4.683,0,0,0,4.382,4.985h0a4.7,4.7,0,1,0-4.382-4.985Z" transform="translate(104.326 29.546)" fill="#bdd0fb"/>
    <path id="Path_1674" data-name="Path 1674" d="M314.233,108.3c-.249-.866-.485-1.745-.669-2.624a.656.656,0,0,1,.512-.787c.892-.2.774.813,1.43,3.03a.683.683,0,0,1-1.312.38Z" transform="translate(97.774 32.699)" fill="#91b3fa"/>
    <path id="Path_1675" data-name="Path 1675" d="M313,106.651a34.388,34.388,0,0,1,.643-5.431.669.669,0,1,1,1.312.262c-.958,4.762-.21,5.916-1.312,5.864a.656.656,0,0,1-.643-.7Zm3.791-12.961a.656.656,0,0,1-.315-.879,34.822,34.822,0,0,1,2.781-4.723.669.669,0,0,1,1.089.761,32.864,32.864,0,0,0-2.624,4.539.669.669,0,0,1-.945.3Zm8.579-11.072a.683.683,0,0,1-.223-.171.669.669,0,0,1,.066-.931,36.638,36.638,0,0,1,4.421-3.227.682.682,0,0,1,.918.223.656.656,0,0,1-.21.905,34.11,34.11,0,0,0-4.224,3.109.669.669,0,0,1-.761.092Zm12.266-6.743a.722.722,0,0,1-.354-.407.682.682,0,0,1,.446-.84,35.6,35.6,0,0,1,5.339-1.181.662.662,0,1,1,.184,1.312,34.622,34.622,0,0,0-5.142,1.141.656.656,0,0,1-.485-.026Zm13.577-1.955a.669.669,0,0,1,.735-.59,35.236,35.236,0,0,1,5.365,1.036.679.679,0,1,1-.354,1.312,32.706,32.706,0,0,0-5.169-1,.656.656,0,0,1-.59-.761Z" transform="translate(97.603 22.866)" fill="#91b3fa"/>
    <path id="Path_1676" data-name="Path 1676" d="M354.82,79.316c-2.007-1.312-2.9-1.522-2.453-2.3a.669.669,0,0,1,.918-.249c.774.446,1.535.945,2.283,1.456a.66.66,0,1,1-.748,1.089Z" transform="translate(109.844 23.912)" fill="#91b3fa"/>
    <path id="Path_1677" data-name="Path 1677" d="M365.23,97.382c-.315-2.427-.8-3.175.079-3.358a.656.656,0,0,1,.787.512c.184.879.328,1.771.446,2.624a.661.661,0,1,1-1.312.171Z" transform="translate(113.759 29.315)" fill="#91b3fa"/>
    <path id="Path_1678" data-name="Path 1678" d="M330.926,131.413c.354-1.049,1.141,0,5.864.813a.669.669,0,0,1-.21,1.312,34.252,34.252,0,0,1-5.247-1.312.669.669,0,0,1-.407-.813Zm13.656,1.9a.669.669,0,0,1,.6-.721c4.828-.394,5.654-1.4,5.916-.328a.669.669,0,0,1-.485.8,34.74,34.74,0,0,1-5.313.853A.669.669,0,0,1,344.583,133.315Zm13.289-3.621c-.512-.984.8-.787,4.657-3.673a.661.661,0,1,1,.787,1.063,34.9,34.9,0,0,1-4.539,2.886.669.669,0,0,1-.905-.289Zm10.809-8.553c-.866-.7.42-1.036,2.834-5.247a.669.669,0,0,1,1.154.669,35.331,35.331,0,0,1-3.057,4.421.669.669,0,0,1-.931.144Zm6.113-12.935c1.312-4.657.656-5.785,1.758-5.654a.682.682,0,0,1,.59.748,36.1,36.1,0,0,1-1.063,5.247.681.681,0,1,1-1.312-.367Z" transform="translate(103.185 31.976)" fill="#91b3fa"/>
    <path id="Path_1679" data-name="Path 1679" d="M325.811,122.955c-.761-.485-1.509-1.01-2.217-1.548a.656.656,0,0,1-.131-.931c.564-.735,1.115.1,3.07,1.312a.687.687,0,0,1-.721,1.168Z" transform="translate(100.823 37.482)" fill="#91b3fa"/>
    <path id="Path_1680" data-name="Path 1680" d="M335.43,117.963a1,1,0,1,1,.971-1.745,14.182,14.182,0,0,0,2.807,1.312,14.43,14.43,0,1,0-8.684-19.822c-3.043,6.559.394,10.022-1.705,10.495a1.01,1.01,0,0,1-1.207-.735A16.463,16.463,0,1,1,338.6,119.419h0A16.345,16.345,0,0,1,335.43,117.963Z" transform="translate(102.026 27.218)" fill="#bdd0fb"/>
    <path id="Path_1681" data-name="Path 1681" d="M128.22,151.328v.735c0,.433.131,1.181.275,2.335,1.063,8.592,4.828,38.043,8.33,65.316s6.756,52.473,6.756,52.473l6.966-1.312s-.236-1.863-.656-5.116c-1.469-11.413-5.142-39.945-8.448-65.736-1.666-12.908-3.227-25.122-4.368-34.108-.577-4.526-1.049-8.251-1.377-10.875-.157-1.312-.289-2.348-.367-3.07a6.191,6.191,0,0,0-.092-.8V151h0l-2.086.275,2.1-.21V151l-2.086.275,2.1-.21-3.266.341h3.266V151l-3.266.341H128.22Z" transform="translate(39.983 47.087)" fill="#112b46"/>
    <path id="Path_1682" data-name="Path 1682" d="M2.125,0H6.4A2.138,2.138,0,0,1,8.54,2.138v99.7H0V2.138A2.138,2.138,0,0,1,2.125,0Z" transform="translate(239.068 432.734) rotate(180)" fill="#0a2033"/>
    <path id="Path_1683" data-name="Path 1683" d="M2.125,0H6.4A2.138,2.138,0,0,1,8.54,2.138V25.017H0V2.125A2.138,2.138,0,0,1,2.125,0Z" transform="translate(239.068 432.734) rotate(180)" fill="#0a2033"/>
    <path id="Path_1684" data-name="Path 1684" d="M6.979,0H40.024A6.966,6.966,0,0,1,46.99,6.966V8.75H0V7.018A6.966,6.966,0,0,1,6.979,0Z" transform="translate(258.3 341.011) rotate(180)" fill="#112b46"/>
    <rect id="Rectangle_231" data-name="Rectangle 231" width="104.12" height="20.307" rx="6.2" transform="translate(286.858 332.589) rotate(180)" fill="#bcbec0"/>
    <path id="Path_1685" data-name="Path 1685" d="M145.19,326.67c0,3.371,2.243,6.113,5,6.113s5.011-2.742,5.011-6.113-2.243-6.1-5.011-6.1S145.19,323.312,145.19,326.67Z" transform="translate(45.275 99.964)" fill="#0a2033"/>
    <ellipse id="Ellipse_50" data-name="Ellipse 50" cx="4.998" cy="6.1" rx="4.998" ry="6.1" transform="translate(269.149 420.534)" fill="#0a2033"/>
    <rect id="Rectangle_232" data-name="Rectangle 232" width="17.185" height="18.326" transform="translate(243.397 418.278) rotate(180)" fill="#112b46"/>
    <path id="Path_1686" data-name="Path 1686" d="M0,0H88.68V1.705a6.913,6.913,0,0,1-6.913,6.913H6.913A6.913,6.913,0,0,1,0,1.705Z" transform="translate(279.145 422.594) rotate(180)" fill="#bcbec0"/>
    <path id="Path_1687" data-name="Path 1687" d="M126.626,159.042l3.765,34.108c.538,4.854,4.2,8.251,8.173,7.6s6.769-5.116,6.231-9.97l-3.752-34.108c-.538-4.854-4.2-8.265-8.186-7.609s-6.769,5.116-6.231,9.97" transform="translate(39.465 46.456)" fill="#a7a9ac"/>
    <path id="Path_1688" data-name="Path 1688" d="M190.62,112.748c.184-1.076,1.141-1.482,3.516-2.519,4.237-1.837,8.488-3.673,12.659-5.667a2.965,2.965,0,0,0,1.377-2.073c.341-4.513.42-9.052.813-13.564a2.453,2.453,0,0,0-1.312-2.873c-5.1-2.991-10.114-6.113-15.112-9.183,1.063-5.247,6.848-17.264,10.036-20.661,5.247,2.02,10.652,3.936,15.965,6.192a2.847,2.847,0,0,0,3.8-.826,118.982,118.982,0,0,1,9.8-8.724c1.312-1.115,2.1-1.981,1.574-3.935-1.312-4.985-2.374-10.036-3.634-15.034-.341-1.312-.1-2.2,1.22-2.624l18.667-6.428c1.535-.525,1.81.735,2.23,1.627,2.1,4.552,4.224,9.078,6.166,13.7a3.227,3.227,0,0,0,3.568,2.256c5.037,0,10.088.328,15.519.538l9.878-16.083a67.533,67.533,0,0,1,20.438,10.193c-2.283,6-4.552,12-6.559,17.29,3.87,4.6,7.556,8.8,10.993,13.184a2.545,2.545,0,0,0,3.161,1.1c4.932-1.246,9.891-2.348,14.824-3.555,1.063-.262,1.85-.328,2.44.826a64.6,64.6,0,0,1,6.559,18.366,2.046,2.046,0,0,1-1.443,2.624c-4.775,2.151-9.5,4.382-14.273,6.559A2.322,2.322,0,0,0,321.8,95.9c-.223,4.985-.643,9.944-1.194,14.889a1.994,1.994,0,0,0,1.181,2.3c5.024,3.1,10.049,6.231,15.191,9.432a71.928,71.928,0,0,1-9.865,20.307l-18.025-6.835L294.845,148.4c1.036,4.408,2.256,9.471,3.4,14.561.931,4.172,1.509,3.608-2.624,5.51a6.769,6.769,0,0,0-1.089.761L283.314,173a13.486,13.486,0,0,0-2.624.42c-2.138.748-3.371.289-4.3-1.994-1.941-4.762-4.2-9.406-6.428-14.05a2.742,2.742,0,0,0-1.889-1.312c-4.434-.42-8.92-.459-13.315-1.1a3.319,3.319,0,0,0-4.027,1.994c-2.847,4.814-5.89,9.524-9.183,14.758l-20.386-9.891c.472-1.312.748-2.138,1.036-2.9,1.8-4.749,3.555-9.511,5.444-14.233a2.532,2.532,0,0,0-.722-3.109c-3.214-3.594-6.2-7.4-9.406-11.006a3,3,0,0,0-2.44-.774c-4.08.84-8.107,1.9-12.174,2.834-3.28.748-4.513,1.01-5.588,0Zm29.674-.472a46.662,46.662,0,1,0,3.935-35.419,46.662,46.662,0,0,0-3.935,35.419Z" transform="translate(59.441 7.704)" fill="#d6e8fc"/>
    <path id="Path_1689" data-name="Path 1689" d="M179.7,168.187a27.365,27.365,0,1,1,33.544-19.271A27.365,27.365,0,0,1,179.7,168.187Zm2.624-6.284h0a20.648,20.648,0,0,0,24.649-15.611h0a20.648,20.648,0,0,0-15.624-24.649h0a20.635,20.635,0,0,0-24.623,15.624h0A20.622,20.622,0,0,0,182.325,161.9Z" transform="translate(49.725 35.672)" fill="#d6e8fc"/>
    <path id="Path_1690" data-name="Path 1690" d="M174.805,189.044c-.512-.433-.42-1.049-.21-2.624.38-2.781.761-5.562,1.036-8.356a1.784,1.784,0,0,0-.682-1.377c-2.23-1.6-4.565-3.057-6.782-4.683a1.482,1.482,0,0,0-1.9-.223c-3.162,1.705-6.362,3.332-9.511,4.972-2.414-2.217-6.822-8.986-7.582-11.715,2.7-2.1,5.431-4.277,8.238-6.349a1.732,1.732,0,0,0,.774-2.23,72.158,72.158,0,0,1-1.456-7.871c-.144-1.076-.367-1.719-1.522-2.06-3.017-.866-5.969-1.915-8.96-2.834-.8-.249-1.168-.63-1-1.469.853-3.936,1.692-7.805,2.545-11.715.21-.958.945-.708,1.548-.643,3.017.341,6.034.656,9.052,1.1a1.955,1.955,0,0,0,2.3-1.128c1.587-2.624,3.345-5.142,5.156-7.871-1.614-3.148-3.411-6.559-5.247-10.193a41.362,41.362,0,0,1,11.728-7.412l6.913,8.855c3.621-.564,6.953-1.168,10.311-1.574a1.548,1.548,0,0,0,1.574-1.312c.892-2.938,1.889-5.864,2.807-8.816.2-.63.42-1.063,1.207-1a39.04,39.04,0,0,1,11.583,2.388,1.233,1.233,0,0,1,.879,1.561c-.38,3.148-.708,6.31-1.1,9.458a1.43,1.43,0,0,0,.748,1.653c2.519,1.679,4.959,3.463,7.359,5.247a1.233,1.233,0,0,0,1.561.1c3.188-1.64,6.389-3.266,9.681-4.932a44.6,44.6,0,0,1,7.451,11.518l-9.183,7.215,2.06,11.295c2.624.853,5.628,1.81,8.632,2.82,2.453.826,2.348.341,2.02,3.109a5.472,5.472,0,0,0,0,.8q-.774,3.529-1.561,7.018a8.175,8.175,0,0,0-.617,1.5c-.289,1.312-.905,1.837-2.388,1.614-3.083-.5-6.2-.787-9.327-1.089a1.679,1.679,0,0,0-1.312.577c-1.614,2.178-3.043,4.486-4.762,6.559a2.033,2.033,0,0,0-.236,2.715c1.614,3,3.109,6.061,4.8,9.393l-11.557,7.477-1.181-1.443c-1.9-2.427-3.817-4.841-5.68-7.307a1.548,1.548,0,0,0-1.837-.6c-2.886.538-5.8.892-8.684,1.417a1.876,1.876,0,0,0-1.168,1.023c-.84,2.388-1.561,4.814-2.361,7.215-.643,1.955-.892,2.624-1.771,2.9Zm9.078-15.558a13.723,13.723,0,1,1,0-.039Z" transform="translate(45.281 31.344)" fill="#d6e8fc"/>
    <rect id="Rectangle_233" data-name="Rectangle 233" width="3.135" height="11.531" transform="translate(310.393 125.477) rotate(180)" fill="#d6e8fc"/>
    <path id="Path_1691" data-name="Path 1691" d="M234.6,86.184h2.2a.38.38,0,0,0,.394-.394h0a.38.38,0,0,0-.394-.38h-2.2a.394.394,0,0,0-.394.38h0A.394.394,0,0,0,234.6,86.184Z" transform="translate(73.034 26.634)" fill="#d6e8fc"/>
    <rect id="Rectangle_234" data-name="Rectangle 234" width="3.135" height="20.583" transform="translate(315.784 125.477) rotate(180)" fill="#d6e8fc"/>
    <path id="Path_1692" data-name="Path 1692" d="M238.77,79.5h2.217a.394.394,0,0,0,.394-.394h0a.407.407,0,0,0-.394-.394H238.77a.394.394,0,0,0-.38.394h0a.38.38,0,0,0,.38.394Z" transform="translate(74.338 24.544)" fill="#d6e8fc"/>
    <rect id="Rectangle_235" data-name="Rectangle 235" width="3.135" height="34.908" transform="translate(320.953 125.477) rotate(180)" fill="#d6e8fc"/>
    <path id="Path_1693" data-name="Path 1693" d="M242.724,68.494h2.2a.38.38,0,0,0,.394-.394h0a.38.38,0,0,0-.394-.38h-2.2a.394.394,0,0,0-.394.38h0A.394.394,0,0,0,242.724,68.494Z" transform="translate(75.566 21.117)" fill="#d6e8fc"/>
    <rect id="Rectangle_236" data-name="Rectangle 236" width="3.135" height="28.572" transform="translate(326.266 125.477) rotate(180)" fill="#d6e8fc"/>
    <path id="Path_1694" data-name="Path 1694" d="M246.774,73.464h2.2a.38.38,0,0,0,.394-.38h0a.38.38,0,0,0-.394-.394h-2.2a.394.394,0,0,0-.394.394h0a.394.394,0,0,0,.394.38Z" transform="translate(76.829 22.667)" fill="#d6e8fc"/>
    <rect id="Rectangle_237" data-name="Rectangle 237" width="3.135" height="44.432" transform="translate(331.461 125.477) rotate(180)" fill="#d6e8fc"/>
    <path id="Path_1695" data-name="Path 1695" d="M250.724,61.317h2.2a.394.394,0,0,0,.394-.394h0a.407.407,0,0,0-.394-.394h-2.2a.394.394,0,0,0-.394.394h0a.38.38,0,0,0,.394.394Z" transform="translate(78.061 18.875)" fill="#d6e8fc"/>
    <rect id="Rectangle_238" data-name="Rectangle 238" width="3.135" height="37.492" transform="translate(336.485 125.477) rotate(180)" fill="#d6e8fc"/>
    <path id="Path_1696" data-name="Path 1696" d="M254.564,66.647h2.2a.38.38,0,0,0,.394-.394h0a.394.394,0,0,0-.393-.394h-2.2a.394.394,0,0,0-.394.394h0a.38.38,0,0,0,.394.394Z" transform="translate(79.258 20.537)" fill="#d6e8fc"/>
    <rect id="Rectangle_239" data-name="Rectangle 239" width="670.333" height="9.301" transform="translate(670.333 442.743) rotate(180)" fill="#031efb" opacity="0.35"/>
    <path id="Path_1697" data-name="Path 1697" d="M83.4,293.968s-8.934-10.429-.551-17.054c0,0,6.126-3.712,11.124-3.411,0,0-7.084,11.806-4.788,13.04s6.926-13.787,6.926-13.787,13.932-1.312,18.366.8c0,0-11.911,9.76-9.406,10.337s15.375-8.986,15.375-8.986,12.974,2.2,12.279,10.114-5.155,10.35-7.123,10.14-13.446-4.591-13.7-2.978,6.664,6.861,11.5,7.11c0,0-9.183,10.088-15.217,7.176s-6.559-7.53-10.39-9.262-7.018-1.719-5.457,0,8.422,3.489,10.586,7.32,4.106,6.415-2.178,5.47-16.5-5.549-16.962-10.823Z" transform="translate(24.717 84.928)" fill="#0396fb"/>
    <path id="Path_1698" data-name="Path 1698" d="M127.283,282.193s-35.223-1.312-43,8.724a25.423,25.423,0,0,1-7.005,9.839l-.826,2.256s6.1-6.441,8.278-6.835C84.728,296.178,81.317,283.7,127.283,282.193Z" transform="translate(23.84 87.979)" fill="#0396fb"/>
    <path id="Path_1699" data-name="Path 1699" d="M79,296.54a22.1,22.1,0,0,0-8.094,15.585l1.312.118S74.636,301.919,79,297.878,79,296.54,79,296.54Z" transform="translate(22.112 92.195)" fill="#0396fb"/>
    <path id="Path_1700" data-name="Path 1700" d="M71.012,287.59s14.207-7.963,7.582-18.759c0,0-5.247-6.638-10.993-8.343,0,0,3.03,16.109,0,16.49s-2.086-18.2-2.086-18.2-14.981-7.2-20.845-6.638c0,0,9.288,15.742,6.257,15.348S37.416,251.2,37.416,251.2s-15.348-2.834-17.8,6.257,1.509,13.643,3.778,14.207,16.87.38,16.49,2.283S29.65,278.866,24.14,277.16c0,0,6.061,14.968,14.023,14.207s10.495-5.68,15.348-6.061,8.527.945,6.061,2.283-10.8.433-14.771,3.817-7.2,5.457.184,6.979,20.661.564,23.311-5.116Z" transform="translate(5.875 78.202)" fill="#0396fb"/>
    <path id="Path_1701" data-name="Path 1701" d="M24.81,258S64.6,270.882,69.15,285.286a30.29,30.29,0,0,0,3.791,13.827v2.847s-4.172-9.668-6.441-10.993C66.5,291.019,75.407,278.517,24.81,258Z" transform="translate(7.737 80.453)" fill="#0396fb"/>
    <path id="Path_1702" data-name="Path 1702" d="M61.954,289.8a26.237,26.237,0,0,1,2.624,20.661L63,310.043s1.535-12.5-1.679-18.785S61.954,289.8,61.954,289.8Z" transform="translate(18.723 89.817)" fill="#0396fb"/>
    <path id="Path_1703" data-name="Path 1703" d="M78.778,282s-18.733-10.495-10-24.728c0,0,6.992-8.75,14.43-10.993,0,0-3.935,21.239,0,21.737s2.755-23.98,2.755-23.98,19.677-9.5,27.47-8.75c0,0-12.239,20.74-8.238,20.242s17.736-21.488,17.736-21.488,20.228-3.752,23.482,8.238-2.007,17.985-5,18.733-22.3.512-21.737,3,13.5,6.494,20.74,4.25c0,0-8,19.677-18.484,18.733s-13.748-7.5-20.242-8-11.229,1.312-7.989,3,14.233.577,19.481,5.024,9.5,7.215-.249,9.183-27.221.748-30.723-6.743Z" transform="translate(20.724 72.808)" fill="#033cfb"/>
    <path id="Path_1704" data-name="Path 1704" d="M135.493,243.05s-52.473,16.988-58.442,35.97A39.854,39.854,0,0,1,72,297.255v3.739s5.5-12.738,8.488-14.43C80.54,286.511,68.8,270.021,135.493,243.05Z" transform="translate(22.452 75.791)" fill="#033cfb"/>
    <path id="Path_1705" data-name="Path 1705" d="M73.165,284.923s-8.094,12.279-3.476,27.234l2.073-.551s-2.02-16.477,2.217-24.754S73.165,284.923,73.165,284.923Z" transform="translate(21.287 88.123)" fill="#033cfb"/>
    <path id="Path_1706" data-name="Path 1706" d="M84.082,338.581a36.731,36.731,0,0,0,36.731-36.731H47.39a36.731,36.731,0,0,0,36.692,36.731Z" transform="translate(14.778 94.127)" fill="#03d0fb"/>
    <path id="Path_1707" data-name="Path 1707" d="M51.539,327.82h65.355a4.526,4.526,0,0,1,4.526,4.526H47a4.526,4.526,0,0,1,4.526-4.526Z" transform="translate(14.656 102.225)" fill="#d4e4f8"/>
    <rect id="Rectangle_240" data-name="Rectangle 240" width="75.43" height="1.128" transform="translate(60.961 396.016)" fill="#9fc1f4"/>
    <rect id="Rectangle_241" data-name="Rectangle 241" width="56.684" height="54.992" rx="15.39" transform="translate(417.333)" fill="#c0d8fb"/>
    <rect id="Rectangle_242" data-name="Rectangle 242" width="51.778" height="50.23" rx="14.06" transform="translate(419.799 2.388)" fill="#dfebfd"/>
    <circle id="Ellipse_51" data-name="Ellipse 51" cx="1.181" cy="1.181" r="1.181" transform="translate(444.501 6.218)" fill="#b7d3f3"/>
    <path id="Path_1708" data-name="Path 1708" d="M346.105,7.052a1.168,1.168,0,1,1,.446,1.587,1.167,1.167,0,0,1-.446-1.587Z" transform="translate(107.88 2.013)" fill="#b7d3f3"/>
    <path id="Path_1709" data-name="Path 1709" d="M352.388,11.865a1.181,1.181,0,1,1-.354,1.627,1.181,1.181,0,0,1,.354-1.627Z" transform="translate(109.718 3.641)" fill="#b7d3f3"/>
    <path id="Path_1710" data-name="Path 1710" d="M355.6,19.43a1.181,1.181,0,1,1-1.181,1.181A1.181,1.181,0,0,1,355.6,19.43Z" transform="translate(110.52 6.059)" fill="#b7d3f3"/>
    <path id="Path_1711" data-name="Path 1711" d="M354.24,28.343a1.207,1.207,0,0,1,0,1.666,1.181,1.181,0,1,1,0-1.666Z" transform="translate(109.834 8.73)" fill="#b7d3f3"/>
    <path id="Path_1712" data-name="Path 1712" d="M348.6,33.982a1.168,1.168,0,1,1-.826-.343,1.168,1.168,0,0,1,.826.343Z" transform="translate(108.084 10.49)" fill="#b7d3f3"/>
    <path id="Path_1713" data-name="Path 1713" d="M338.84,37.081a1.181,1.181,0,1,1,1.181,1.181,1.168,1.168,0,0,1-1.181-1.181Z" transform="translate(105.661 11.195)" fill="#b7d3f3"/>
    <path id="Path_1714" data-name="Path 1714" d="M333.9,7.057a1.168,1.168,0,1,0,.083.9,1.168,1.168,0,0,0-.083-.9Z" transform="translate(103.436 2.007)" fill="#b7d3f3"/>
    <path id="Path_1715" data-name="Path 1715" d="M327.63,11.863a1.194,1.194,0,0,0-1.627.354,1.168,1.168,0,1,0,1.627-.354Z" transform="translate(101.602 3.643)" fill="#b7d3f3"/>
    <path id="Path_1716" data-name="Path 1716" d="M324.411,19.43a1.181,1.181,0,1,0,1.181,1.181A1.181,1.181,0,0,0,324.411,19.43Z" transform="translate(100.793 6.059)" fill="#b7d3f3"/>
    <path id="Path_1717" data-name="Path 1717" d="M325.769,28.343a1.207,1.207,0,0,0,0,1.666,1.181,1.181,0,1,0,0-1.666Z" transform="translate(101.481 8.73)" fill="#b7d3f3"/>
    <circle id="Ellipse_52" data-name="Ellipse 52" cx="1.181" cy="1.181" r="1.181" transform="translate(434.282 44.117)" fill="#b7d3f3"/>
    <path id="Path_1718" data-name="Path 1718" d="M339.5,20.614a1.181,1.181,0,1,1,1.168,1.168,1.168,1.168,0,0,1-1.168-1.168Z" transform="translate(105.867 6.056)" fill="#b7d3f3"/>
    <rect id="Rectangle_243" data-name="Rectangle 243" width="0.315" height="14.666" transform="translate(446.377 12.003)" fill="#b7d3f3"/>
    <rect id="Rectangle_244" data-name="Rectangle 244" width="9.891" height="0.958" transform="matrix(0.787, -0.617, 0.617, 0.787, 446.112, 26.274)" fill="#b7d3f3"/>
    <path id="Path_1719" data-name="Path 1719" d="M240.724,228.1c-7.241,12.62-16.359,17.487-16.359,17.487H186.44S246.207,218.485,240.724,228.1Z" transform="translate(58.138 70.485)" fill="#233862"/>
    <path id="Path_1720" data-name="Path 1720" d="M263.942,329.867c-.407,3.935,5.129,5,11.544,5.392s4.46,1.679,13.25,3.371,12.331-.682,12.987-1.863-3.5-2.742-7.871-4.657l-1.64-.735c-4.893-2.2-7.6-6.638-11.374-10.757-3.594-3.935-6.9-16.319-6.9-16.319L262,301.61s3.227,11.177,4.342,15.952c.656,2.807-.38,5.916-1.312,8.291a15.638,15.638,0,0,0-1.089,4.014Z" transform="translate(81.7 94.052)" fill="url(#radial-gradient)"/>
    <path id="Path_1721" data-name="Path 1721" d="M275.038,329.5c6.415.394,4.46,1.679,13.25,3.371s12.331-.682,12.987-1.863-3.5-2.742-7.871-4.657l-.079.079a25.043,25.043,0,0,1-13.328,0c-5.811-1.64-11.4-5.182-15.4-6.349a15.639,15.639,0,0,0-1.141,4.014C263.087,328.082,268.623,329.158,275.038,329.5Z" transform="translate(82.148 99.811)" fill="#0a2033"/>
    <path id="Path_1722" data-name="Path 1722" d="M277.057,226.239c-6.415-4.513-48.892-12.541-70.563-14.863L182.527,190.57s-20.386,30.172-20.556,53.313c-.066,10.77,4.893,11.806,4.893,11.806s76.808.564,80.166.918c5.51.564,12.777,14.3,14.6,26.8s33.845,63.348,33.845,63.348,6.677,2.151,9.76,1.968a9.825,9.825,0,0,0,4.867-1.312S291.54,236.405,277.057,226.239Z" transform="translate(50.507 59.426)" fill="#0a2033"/>
    <path id="Path_1723" data-name="Path 1723" d="M248.8,329.867c-.407,3.935,5.129,5,11.544,5.392s4.46,1.679,13.25,3.371,12.331-.682,12.987-1.863-3.5-2.742-7.871-4.657l-1.64-.735c-4.88-2.2-7.582-6.638-11.374-10.757-3.581-3.935-6.887-16.319-6.887-16.319L246.87,301.61s3.24,11.177,4.355,15.952c.656,2.807-.394,5.916-1.312,8.291A15.636,15.636,0,0,0,248.8,329.867Z" transform="translate(76.982 94.052)" fill="url(#radial-gradient-2)"/>
    <path id="Path_1724" data-name="Path 1724" d="M259.9,329.5c6.415.394,4.46,1.679,13.25,3.371s12.331-.682,12.987-1.863-3.5-2.742-7.871-4.657l-.066.079a25.043,25.043,0,0,1-13.328,0c-5.811-1.64-11.4-5.182-15.4-6.349a15.637,15.637,0,0,0-1.141,4.014C247.905,328.082,253.481,329.158,259.9,329.5Z" transform="translate(77.429 99.811)" fill="#0a2033"/>
    <path id="Path_1725" data-name="Path 1725" d="M261.774,226.22c-5.575-3.935-22.3-6.953-40.877-9.183a12.462,12.462,0,0,1-10.573-9.353h0L167.257,190.63s-20.4,30.172-20.556,53.313c-.079,10.77,4.88,11.806,4.88,11.806s76.808.564,80.166.918c5.523.564,12.79,14.3,14.6,26.8s33.845,63.348,33.845,63.348,6.677,2.151,9.76,1.968a9.747,9.747,0,0,0,4.867-1.312S276.257,236.387,261.774,226.22Z" transform="translate(45.746 59.445)" fill="#243c55"/>
    <path id="Path_1726" data-name="Path 1726" d="M209.095,95.832c-5.877-3.109-14.929-3.529-16.372-3.726-17.513-2.348-28.047,23.088-28.677,30.8-1.141,14.207-8.658,16.372-19.231,25.279-21.225,17.841-14.994,38.581-3.4,46.281,6.966,4.631,19.231,0,19.231,0s33.557-18.654,50.007-27.719C235.318,163.247,224.207,103.821,209.095,95.832Z" transform="translate(40.783 28.674)" fill="#233862"/>
    <path id="Path_1727" data-name="Path 1727" d="M193.266,148.06c.079,0-7.779,3.608-13.459,1.732-5.326-1.758-10.036-9.786-9.957-9.8,2.322-.341,4.67-2.624,5.326-16.162l1.023.262,17.251,4.355s-.682,5.47-.971,10.626C192.243,143.416,192.348,147.548,193.266,148.06Z" transform="translate(52.964 38.614)" fill="url(#radial-gradient-3)"/>
    <path id="Path_1728" data-name="Path 1728" d="M192.047,128.108s0,1.128-.643,6.2c-9.76-2.453-14.05-5.693-17.054-9.393Z" transform="translate(54.368 38.954)" fill="#efa78b"/>
    <path id="Path_1729" data-name="Path 1729" d="M197.111,136.843s-22.8,3.712-24.925-10.495-6.454-23.337,8.015-26.315,18.1,2.046,19.966,6.559S202.988,135.5,197.111,136.843Z" transform="translate(52.977 30.914)" fill="url(#radial-gradient-4)"/>
    <path id="Path_1730" data-name="Path 1730" d="M198.6,99.946s-10.35,16.345-19.6,20.215-13.787,1.9-13.787,1.9a38.8,38.8,0,0,0,5.247-14.929,7.018,7.018,0,0,1,4.329-5.641C181.477,98.844,194.306,94.646,198.6,99.946Z" transform="translate(51.518 30.372)" fill="#233862"/>
    <path id="Path_1731" data-name="Path 1731" d="M183.73,101.579s6.061,3.122,8.566,6.034,5.247,10.495,5,13.879c0,0,2.991-16.437-3.24-22.091C187.442,93.419,183.73,101.579,183.73,101.579Z" transform="translate(57.293 30.313)" fill="#233862"/>
    <path id="Path_1732" data-name="Path 1732" d="M216.213,179.412c-.7,46.347-.2,36.666-5.247,41.06-1.233,1.063-4.657,1.692-9.183,1.994-14.207.945-39.2-1.4-40.142-4.027-3.28-9.091-.971-11.911-3.7-25.83-.289-1.482-.643-3.083-1.049-4.828-2.283-9.55-4.5-12.8,3.581-28.152,7.346-13.905,15.965-25.213,16.647-24.807,19.363,11.492,20.032,1.863,20.032,1.863S216.541,156.8,216.213,179.412Z" transform="translate(48.265 42.039)" fill="#035afb"/>
    <path id="Path_1733" data-name="Path 1733" d="M187.07,136.24s19.809,3.358,22.144,11.938,16.109,59.032,16.109,59.032-10.127,1.81-14.811-2.86-16.28-43.4-16.28-43.4Z" transform="translate(58.334 42.484)" fill="#035afb"/>
    <path id="Path_1734" data-name="Path 1734" d="M201.021,213.314c-14.207.945-39.2-1.4-40.142-4.027-3.28-9.091-.971-11.911-3.7-25.83l6.848-19.3s-1.128,21.488,5.247,27.142,25.961,10.914,29.031,15.637A17.2,17.2,0,0,1,201.021,213.314Z" transform="translate(49.014 51.19)" fill="#031efb"/>
    <path id="Path_1735" data-name="Path 1735" d="M178.19,195.258s14.023-3.122,16.28-1.889,7.792,5.785,8.488,7.359-5.037-1.194-6.9-1.692c-1.207-.328-4.382.774-5.956,1.312-6.625,2.2-10.678,1.076-10.678,1.076Z" transform="translate(55.565 60.209)" fill="url(#radial-gradient-5)"/>
    <path id="Path_1736" data-name="Path 1736" d="M182.838,134.82S163,135.988,156.483,145.079c-9.183,12.79-27.378,67.323-16.949,74.6,11.806,8.186,53.47,2.138,53.47,2.138s1.312-6.494-.551-9.629-33.321-8.212-34.764-9.655,18.1-28.244,18.1-32.6S182.838,134.82,182.838,134.82Z" transform="translate(42.535 42.041)" fill="#035afb"/>
    <path id="Path_1737" data-name="Path 1737" d="M191.12,196.28s2.939,3.791,3.936,4.237a2.82,2.82,0,0,0,1.587.341l-1.981-3.568Z" transform="translate(59.597 61.206)" fill="#ffb27d"/>
    <path id="Path_1738" data-name="Path 1738" d="M190.6,193.3l8.54,4.159a1.522,1.522,0,0,1-1.417.538,19.783,19.783,0,0,1-3.7-1.01Z" transform="translate(59.435 60.277)" fill="#ffb27d"/>
    <rect id="Rectangle_245" data-name="Rectangle 245" width="272.874" height="9.721" rx="3.7" transform="translate(226.068 263.416)" fill="#58595b"/>
    <path id="Path_1739" data-name="Path 1739" d="M391.031,369.467h.118a2.453,2.453,0,0,0,2.178-2.742L369.373,204.57l-8.763.249L388.788,367.8a2.02,2.02,0,0,0,2.243,1.666Z" transform="translate(112.45 63.791)" fill="#939598"/>
    <path id="Path_1740" data-name="Path 1740" d="M167.55,369.461h-.118a2.453,2.453,0,0,1-2.178-2.742L189.208,204.59l8.776.249L169.833,367.8A2.007,2.007,0,0,1,167.55,369.461Z" transform="translate(51.526 63.798)" fill="#939598"/>
    <path id="Path_1741" data-name="Path 1741" d="M209.85,369.461h-.118a2.453,2.453,0,0,1-2.178-2.742L231.508,204.59l8.776.249L212.08,367.8a2.007,2.007,0,0,1-2.23,1.666Z" transform="translate(64.716 63.798)" fill="#939598"/>
    <path id="Path_1742" data-name="Path 1742" d="M317,335.949h47.528c2.283-2.794,1.443-13.118,1.1-16.45-.079-.682-.118-1.076-.118-1.076s-16.24-12.974-18.471-3.043c-.066.315-.144.617-.236.918C344,325.6,331.4,329.823,324.123,331,319.414,331.791,317.669,334.231,317,335.949Z" transform="translate(98.851 97.178)" fill="#112b46"/>
    <path id="Path_1743" data-name="Path 1743" d="M440.165,212.44c-1.719,0-81.412,14.955-94.6,31.274C339.01,251.874,338,346.037,338,346.037s8.146,10.1,25.751,4.237c0,0,12.9-64.424,11.951-83.957-.262-5.4,54.454-.787,64.463-3.371s34.488-24.387,29.1-35S440.165,212.44,440.165,212.44Z" transform="translate(105.399 66.246)" fill="#0a2033"/>
    <path id="Path_1744" data-name="Path 1744" d="M351.054,194.86s-16.07.223-19.874,1.85-11.518,5.365-9.458,5.943,11.911-.236,14.05.092a35.514,35.514,0,0,0,6.048-.092H349.2Z" transform="translate(100.216 60.764)" fill="url(#radial-gradient-6)"/>
    <path id="Path_1745" data-name="Path 1745" d="M337.452,170.538s-5.483-3.935-10.8-4.67a46.411,46.411,0,0,1-7.779-1.614c-4.906-1.732-14.732-10.495-14-11.6,2.388-3.319,13.866,3.712,15.86,2.952s-3.844-4.919-1.81-6.376c1.063-.761,3.555,3.07,5.588,3.45,2.742.525,4.893,4.408,5.72,4.6,1.614.394,8.671,5.641,8.671,5.641Z" transform="translate(95.059 46.505)" fill="url(#radial-gradient-7)"/>
    <path id="Path_1746" data-name="Path 1746" d="M430.782,130.58s-12.239,3.8-24.3,37.007-16.634,34.987-20.989,36.3-42.858,8.96-42.858,8.96V222.7h59.282s22.222-21.147,28.86-35.419S430.782,130.58,430.782,130.58Z" transform="translate(106.846 40.719)" fill="#033cfb"/>
    <path id="Path_1747" data-name="Path 1747" d="M301,335.949h47.528c2.283-2.794,1.443-13.118,1.089-16.45-.066-.682-.118-1.076-.118-1.076s-16.227-12.974-18.457-3.043c-.066.315-.144.617-.236.918C328,325.6,315.391,329.823,308.123,331,303.4,331.791,301.656,334.231,301,335.949Z" transform="translate(93.861 97.178)" fill="#112b46"/>
    <path id="Path_1748" data-name="Path 1748" d="M422.285,212.44c-1.719,0-81.412,14.955-94.6,31.274-6.559,8.16-7.569,102.323-7.569,102.323s8.146,10.1,25.738,4.237c0,0,12.908-64.424,11.951-83.957-.262-5.4,54.454-.787,64.477-3.371s34.488-24.387,29.1-35S422.285,212.44,422.285,212.44Z" transform="translate(99.824 66.246)" fill="#243c55"/>
    <path id="Path_1749" data-name="Path 1749" d="M402.979,148.745a77.645,77.645,0,0,0,16.936-3.7c6.559-2.1,11.741-5.182,8.356-11.124-3.109-5.47-8.133-17.683-7.792-27.811L408.4,115.844l-8.212,6.559a95.92,95.92,0,0,0,.931,10.731c.157,1.246.354,2.624.577,4.027a2.926,2.926,0,0,1-1.312,2.939l-.184.118a4.591,4.591,0,0,0,2.781,8.527Z" transform="translate(124.088 33.088)" fill="url(#radial-gradient-8)"/>
    <path id="Path_1750" data-name="Path 1750" d="M399.679,118.559s-.42,1.417.3,6.651c7.32-1.207,14.155-7.031,14.155-7.031-3.726-1.023-5.077-5.051-7.871-4.683Z" transform="translate(124.595 35.384)" fill="#efa78b"/>
    <path id="Path_1751" data-name="Path 1751" d="M395.785,129.328S424,134,426.626,116.432s8.055-28.86-9.8-32.547-22.38,2.453-24.689,8.107S388.583,127.675,395.785,129.328Z" transform="translate(121.719 25.81)" fill="url(#radial-gradient-9)"/>
    <path id="Path_1752" data-name="Path 1752" d="M388.581,85.119c-1.22,4.224,2.02,9.38,7.451,11.085,8.068,2.519,6.284,12.41,9.9,12.266s5.1-5.68,8.33-1.312c2.768,3.791-2.3,8.265-1.942,10.337.59,3.568,6.166,10.849,11.2,10.495s14.43-24.243,12.541-31.641-9.406-15.178-16.516-16.254-17.054,1.994-19.3,1.994S389.211,82.836,388.581,85.119Z" transform="translate(121.092 24.905)" fill="#2b478b"/>
    <path id="Path_1753" data-name="Path 1753" d="M455.077,157.154C451,140.782,439.755,123.6,432.146,123.61c-12.948,0-31.576,3.437-39.106,21.986-5.536,13.669-12.922,92.274-4.578,97.863,19.1,12.777,63.335,38.87,71.206,12.266C466.871,231.351,462.135,185.581,455.077,157.154Z" transform="translate(119.964 38.546)" fill="#033cfb"/>
    <path id="Path_1754" data-name="Path 1754" d="M443.033,139.09a15.348,15.348,0,0,0-23.744-6.559A146.123,146.123,0,0,0,403,147.761c-24.177,25.751-29.1,25.581-33.635,25.056s-42.91-8.671-42.91-8.671a11.492,11.492,0,0,0-3.122,3.791,7.1,7.1,0,0,0-.761,5.247c-1.509-.971,13.591,9.432,21.12,13.591,9.917,5.483,24.925,10.626,30.841,12.567a7.871,7.871,0,0,0,5.182-.079c8.842-3.188,38.542-14.8,62.732-34.96C448.805,158.951,446.51,148,443.033,139.09Z" transform="translate(100.524 40.316)" fill="#033cfb"/>
    <path id="Path_1755" data-name="Path 1755" d="M429.859,125.289l-2.938-6.559s-26.237,2.138-30.671,17.054C396.25,135.758,416.61,125.643,429.859,125.289Z" transform="translate(123.563 37.024)" fill="#243c55"/>
    <path id="Path_1756" data-name="Path 1756" d="M474.228,353.818h.184a2.453,2.453,0,0,0,2.479-2.624L467.052,252.4l-8.632.774,14.207,99.319a1.6,1.6,0,0,0,1.6,1.325Z" transform="translate(142.95 78.706)" fill="#58595b"/>
    <path id="Path_1757" data-name="Path 1757" d="M435.43,353.815h.171a2.453,2.453,0,0,0,2.492-2.624L428.2,252.41l-8.632.774,14.207,99.306a1.587,1.587,0,0,0,1.653,1.325Z" transform="translate(130.835 78.71)" fill="#58595b"/>
    <path id="Path_1758" data-name="Path 1758" d="M359.424,353.815h-.171a2.453,2.453,0,0,1-2.493-2.624l9.891-98.781,8.632.774L361.077,352.49a1.587,1.587,0,0,1-1.653,1.325Z" transform="translate(111.248 78.71)" fill="#414042"/>
    <path id="Path_1759" data-name="Path 1759" d="M488.983,267.594l9.38-82.514c1.233-11.885-2.742-23.534-19.9-24.426l-30.172-1.837c-17.893-.748-25.974,14.142-28.231,25.607l-17.92,90.7Z" transform="translate(125.4 49.516)" fill="#58595b"/>
    <path id="Path_1760" data-name="Path 1760" d="M366.531,241.44H502.384v7.871a7.871,7.871,0,0,1-7.871,7.871H366.531a7.871,7.871,0,0,1-7.871-7.871h0A7.871,7.871,0,0,1,366.531,241.44Z" transform="translate(111.842 75.289)" fill="#414042"/>
    <path id="Path_1761" data-name="Path 1761" d="M410,241.44h78.8v7.871a7.871,7.871,0,0,1-7.871,7.871H410.091a7.871,7.871,0,0,1-7.871-7.871h0a7.871,7.871,0,0,1,7.871-7.871Z" transform="translate(125.425 75.289)" fill="#414042"/>
    <path id="Path_1762" data-name="Path 1762" d="M230.247,202.2H184.53a3.647,3.647,0,0,1,3.647-3.647h42.07Z" transform="translate(57.542 61.914)" fill="#0a2033"/>
    <path id="Path_1763" data-name="Path 1763" d="M226.032,163.37H290.39a2.624,2.624,0,0,1,2.519,3.529l-15.742,46.268H206l16.542-47.331a3.7,3.7,0,0,1,3.49-2.466Z" transform="translate(64.237 50.944)" fill="#0a2033"/>
    <path id="Path_1764" data-name="Path 1764" d="M292.91,168.145l-14.43,42.516a3.621,3.621,0,0,1-3.437,2.466H211.576a3.634,3.634,0,0,1-3.437-4.841L223,165.77a3.647,3.647,0,0,1,3.437-2.44h62.968a3.647,3.647,0,0,1,3.5,4.814Z" transform="translate(64.84 50.931)" fill="#0a2033"/>
    <path id="Path_1765" data-name="Path 1765" d="M246.576,182.818a4.618,4.618,0,0,1-4.25,3.45,2.624,2.624,0,0,1-2.624-3.45,4.6,4.6,0,0,1,4.25-3.437,2.624,2.624,0,0,1,2.624,3.437Z" transform="translate(74.705 55.936)" fill="#fff"/>
  </g>
</svg>
